# Blender 4.1.1
# www.blender.org
mtllib pyramid.mtl
o Cube.007
v 0.300000 1.150000 -0.300000
v 0.300000 0.950000 -0.300000
v 0.300000 1.150000 0.300000
v 0.300000 0.950000 0.300000
v -0.300000 1.150000 -0.300000
v -0.300000 0.950000 -0.300000
v -0.300000 1.150000 0.300000
v -0.300000 0.950000 0.300000
v 1.000000 0.100000 -1.000000
v 1.000000 -0.100000 -1.000000
v 1.000000 0.100000 1.000000
v 1.000000 -0.100000 1.000000
v -1.000000 0.100000 -1.000000
v -1.000000 -0.100000 -1.000000
v -1.000000 0.100000 1.000000
v -1.000000 -0.100000 1.000000
v 0.600000 0.700000 -0.600000
v 0.600000 0.500000 -0.600000
v 0.600000 0.700000 0.600000
v 0.600000 0.500000 0.600000
v -0.600000 0.700000 -0.600000
v -0.600000 0.500000 -0.600000
v -0.600000 0.700000 0.600000
v -0.600000 0.500000 0.600000
v 0.900000 0.250000 -0.900000
v 0.900000 0.050000 -0.900000
v 0.900000 0.250000 0.900000
v 0.900000 0.050000 0.900000
v -0.900000 0.250000 -0.900000
v -0.900000 0.050000 -0.900000
v -0.900000 0.250000 0.900000
v -0.900000 0.050000 0.900000
v 0.800000 0.400000 -0.800000
v 0.800000 0.200000 -0.800000
v 0.800000 0.400000 0.800000
v 0.800000 0.200000 0.800000
v -0.800000 0.400000 -0.800000
v -0.800000 0.200000 -0.800000
v -0.800000 0.400000 0.800000
v -0.800000 0.200000 0.800000
v 0.700000 0.550000 -0.700000
v 0.700000 0.350000 -0.700000
v 0.700000 0.550000 0.700000
v 0.700000 0.350000 0.700000
v -0.700000 0.550000 -0.700000
v -0.700000 0.350000 -0.700000
v -0.700000 0.550000 0.700000
v -0.700000 0.350000 0.700000
v 0.400000 1.000000 -0.400000
v 0.400000 0.800000 -0.400000
v 0.400000 1.000000 0.400000
v 0.400000 0.800000 0.400000
v -0.400000 1.000000 -0.400000
v -0.400000 0.800000 -0.400000
v -0.400000 1.000000 0.400000
v -0.400000 0.800000 0.400000
v 0.500000 0.850000 -0.500000
v 0.500000 0.650000 -0.500000
v 0.500000 0.850000 0.500000
v 0.500000 0.650000 0.500000
v -0.500000 0.850000 -0.500000
v -0.500000 0.650000 -0.500000
v -0.500000 0.850000 0.500000
v -0.500000 0.650000 0.500000
v 0.200000 1.300000 -0.200000
v 0.200000 1.100000 -0.200000
v 0.200000 1.300000 0.200000
v 0.200000 1.100000 0.200000
v -0.200000 1.300000 -0.200000
v -0.200000 1.100000 -0.200000
v -0.200000 1.300000 0.200000
v -0.200000 1.100000 0.200000
vn -0.0000 1.0000 -0.0000
vn -0.0000 -0.0000 1.0000
vn -1.0000 -0.0000 -0.0000
vn -0.0000 -1.0000 -0.0000
vn 1.0000 -0.0000 -0.0000
vn -0.0000 -0.0000 -1.0000
vt 0.625000 0.500000
vt 0.875000 0.500000
vt 0.875000 0.750000
vt 0.625000 0.750000
vt 0.375000 0.750000
vt 0.625000 1.000000
vt 0.375000 1.000000
vt 0.375000 0.000000
vt 0.625000 0.000000
vt 0.625000 0.250000
vt 0.375000 0.250000
vt 0.125000 0.500000
vt 0.375000 0.500000
vt 0.125000 0.750000
s 0
usemtl Material.007
f 1/1/1 5/2/1 7/3/1 3/4/1
f 4/5/2 3/4/2 7/6/2 8/7/2
f 8/8/3 7/9/3 5/10/3 6/11/3
f 6/12/4 2/13/4 4/5/4 8/14/4
f 2/13/5 1/1/5 3/4/5 4/5/5
f 6/11/6 5/10/6 1/1/6 2/13/6
usemtl Material
f 9/1/1 13/2/1 15/3/1 11/4/1
f 12/5/2 11/4/2 15/6/2 16/7/2
f 16/8/3 15/9/3 13/10/3 14/11/3
f 14/12/4 10/13/4 12/5/4 16/14/4
f 10/13/5 9/1/5 11/4/5 12/5/5
f 14/11/6 13/10/6 9/1/6 10/13/6
usemtl Material.001
f 17/1/1 21/2/1 23/3/1 19/4/1
f 20/5/2 19/4/2 23/6/2 24/7/2
f 24/8/3 23/9/3 21/10/3 22/11/3
f 22/12/4 18/13/4 20/5/4 24/14/4
f 18/13/5 17/1/5 19/4/5 20/5/5
f 22/11/6 21/10/6 17/1/6 18/13/6
usemtl Material.002
f 25/1/1 29/2/1 31/3/1 27/4/1
f 28/5/2 27/4/2 31/6/2 32/7/2
f 32/8/3 31/9/3 29/10/3 30/11/3
f 30/12/4 26/13/4 28/5/4 32/14/4
f 26/13/5 25/1/5 27/4/5 28/5/5
f 30/11/6 29/10/6 25/1/6 26/13/6
usemtl Material.003
f 33/1/1 37/2/1 39/3/1 35/4/1
f 36/5/2 35/4/2 39/6/2 40/7/2
f 40/8/3 39/9/3 37/10/3 38/11/3
f 38/12/4 34/13/4 36/5/4 40/14/4
f 34/13/5 33/1/5 35/4/5 36/5/5
f 38/11/6 37/10/6 33/1/6 34/13/6
usemtl Material.004
f 41/1/1 45/2/1 47/3/1 43/4/1
f 44/5/2 43/4/2 47/6/2 48/7/2
f 48/8/3 47/9/3 45/10/3 46/11/3
f 46/12/4 42/13/4 44/5/4 48/14/4
f 42/13/5 41/1/5 43/4/5 44/5/5
f 46/11/6 45/10/6 41/1/6 42/13/6
usemtl Material.005
f 49/1/1 53/2/1 55/3/1 51/4/1
f 52/5/2 51/4/2 55/6/2 56/7/2
f 56/8/3 55/9/3 53/10/3 54/11/3
f 54/12/4 50/13/4 52/5/4 56/14/4
f 50/13/5 49/1/5 51/4/5 52/5/5
f 54/11/6 53/10/6 49/1/6 50/13/6
usemtl Material.006
f 57/1/1 61/2/1 63/3/1 59/4/1
f 60/5/2 59/4/2 63/6/2 64/7/2
f 64/8/3 63/9/3 61/10/3 62/11/3
f 62/12/4 58/13/4 60/5/4 64/14/4
f 58/13/5 57/1/5 59/4/5 60/5/5
f 62/11/6 61/10/6 57/1/6 58/13/6
usemtl Material.008
f 65/1/1 69/2/1 71/3/1 67/4/1
f 68/5/2 67/4/2 71/6/2 72/7/2
f 72/8/3 71/9/3 69/10/3 70/11/3
f 70/12/4 66/13/4 68/5/4 72/14/4
f 66/13/5 65/1/5 67/4/5 68/5/5
f 70/11/6 69/10/6 65/1/6 66/13/6
