# Blender 4.3.0
# www.blender.org
mtllib Crystal_00.mtl
o åœ†ç¯.003
v 1.809319 0.827339 0.558582
v 1.306393 0.930434 0.641268
v 1.068106 0.741210 1.062948
v 1.332744 0.448892 1.401941
v 1.835670 0.345798 1.319255
v 2.073957 0.535021 0.897575
v 1.791373 1.355096 1.426510
v 1.377772 -0.370506 0.002985
v 1.051928 -0.303711 0.056557
v 0.897542 -0.426309 0.329762
v 1.069001 -0.615701 0.549395
v 1.394845 -0.682496 0.495823
v 1.549231 -0.559898 0.222617
v 1.809398 0.827598 0.558743
v 1.306472 0.930693 0.641429
v 1.068185 0.741470 1.063109
v 1.332824 0.449151 1.402102
v 1.835750 0.346057 1.319416
v 2.074037 0.535280 0.897736
v -0.221729 1.242123 -0.600000
v -0.680006 0.997209 -0.300000
v -0.680006 0.997209 0.300000
v -0.221729 1.242123 0.600000
v 0.236547 1.487037 0.300000
v 0.236547 1.487037 -0.300000
v -0.715379 2.165828 -0.000000
v 0.557129 -0.215255 -0.388739
v 0.260213 -0.373934 -0.194369
v 0.260213 -0.373934 0.194369
v 0.557129 -0.215255 0.388738
v 0.854045 -0.056576 0.194369
v 0.854045 -0.056576 -0.194369
v -0.221908 1.242457 -0.600000
v -0.680184 0.997544 -0.300000
v -0.680184 0.997543 0.300000
v -0.221908 1.242457 0.600000
v 0.236369 1.487371 0.300000
v 0.236369 1.487371 -0.300000
v 0.905012 1.922835 -1.000000
v 0.038987 1.922835 -0.500000
v 0.038987 1.922835 0.500000
v 0.905012 1.922835 1.000000
v 1.771037 1.922835 0.500000
v 1.771037 1.922835 -0.500000
v 0.905012 3.493844 -0.000000
v 0.905012 -0.555832 -0.647897
v 0.343916 -0.555832 -0.323949
v 0.343916 -0.555832 0.323949
v 0.905012 -0.555832 0.647897
v 1.466107 -0.555832 0.323949
v 1.466107 -0.555832 -0.323949
v 0.905012 1.923403 -1.000000
v 0.038986 1.923403 -0.500000
v 0.038986 1.923403 0.500000
v 0.905012 1.923403 1.000000
v 1.771037 1.923403 0.500000
v 1.771037 1.923403 -0.500000
v 0.494119 0.099171 -1.378239
v 0.043786 0.240728 -1.160152
v 0.043786 0.523843 -0.723981
v 0.494119 0.665401 -0.505894
v 0.944452 0.523843 -0.723980
v 0.944453 0.240728 -1.160152
v 0.494119 0.865461 -1.255691
v 0.494119 -0.563475 -0.729839
v 0.202350 -0.471761 -0.588542
v 0.202350 -0.288331 -0.305947
v 0.494119 -0.196617 -0.164650
v 0.785889 -0.288331 -0.305947
v 0.785889 -0.471761 -0.588542
v 0.494119 0.099346 -1.378352
v 0.043786 0.240903 -1.160266
v 0.043786 0.524018 -0.724094
v 0.494119 0.665575 -0.506008
v 0.944453 0.524018 -0.724094
v 0.944453 0.240903 -1.160266
v 1.797006 0.947874 -0.831267
v 1.642932 1.069810 -0.604567
v 1.758320 1.069810 -0.327645
v 2.027781 0.947874 -0.277423
v 2.181854 0.825937 -0.504123
v 2.066467 0.825937 -0.781045
v 2.366131 1.872696 -0.743408
v 1.121747 -0.511269 -0.435466
v 1.021923 -0.432267 -0.288588
v 1.096683 -0.432267 -0.109171
v 1.271266 -0.511269 -0.076632
v 1.371090 -0.590272 -0.223510
v 1.296330 -0.590272 -0.402927
v 1.797170 0.948208 -0.831335
v 1.643096 1.070144 -0.604635
v 1.758484 1.070144 -0.327713
v 2.027945 0.948208 -0.277491
v 2.182019 0.826271 -0.504191
v 2.066631 0.826271 -0.781113
vn -0.2525 -0.8215 -0.5113
vn -0.6416 0.7668 -0.0184
vn 0.8731 -0.0135 0.4873
vn -0.6156 0.2917 0.7321
vn 0.0898 0.8518 -0.5161
vn 0.8471 0.4617 -0.2632
vn 0.1418 -0.0985 0.9850
vn 0.2525 0.8215 0.5113
vn -0.8755 0.3422 -0.3412
vn 0.8178 -0.5301 0.2242
vn -0.8464 -0.1890 0.4978
vn -0.0579 0.4372 -0.8975
vn 0.7887 0.0011 -0.6148
vn 0.0002 -0.6251 0.7806
vn 0.4713 -0.8820 -0.0000
vn -0.9995 -0.0303 -0.0000
vn 0.5806 0.8142 -0.0000
vn -0.6045 0.1809 0.7758
vn -0.6045 0.1809 -0.7758
vn 0.1856 0.6031 -0.7758
vn 0.1856 0.6031 0.7758
vn -0.4713 0.8820 -0.0000
vn -0.8247 -0.5655 -0.0000
vn 0.9285 0.3714 -0.0000
vn -0.3864 -0.3313 0.8608
vn -0.3864 -0.3313 -0.8608
vn 0.4902 0.1372 -0.8608
vn 0.4902 0.1372 0.8608
vn -0.0000 -1.0000 -0.0000
vn -0.8758 0.4828 -0.0000
vn 0.8758 0.4828 -0.0000
vn -0.4379 0.4828 0.7584
vn -0.4379 0.4828 -0.7584
vn 0.4379 0.4828 -0.7584
vn 0.4379 0.4828 0.7584
vn -0.0000 1.0000 -0.0000
vn -0.9925 -0.1221 -0.0000
vn 0.9925 -0.1221 -0.0000
vn -0.4963 -0.1221 0.8595
vn -0.4963 -0.1221 -0.8595
vn 0.4963 -0.1221 -0.8595
vn 0.4963 -0.1221 0.8595
vn -0.0000 -0.8388 0.5445
vn -0.7878 0.5166 -0.3353
vn 0.7878 0.5166 -0.3353
vn -0.3939 0.8881 0.2370
vn -0.3939 0.1451 -0.9076
vn 0.3939 0.1451 -0.9076
vn 0.3939 0.8881 0.2370
vn -0.0000 0.8388 -0.5445
vn -0.9851 -0.1441 0.0936
vn 0.9851 -0.1441 0.0936
vn -0.4926 0.3204 0.8092
vn -0.4926 -0.6086 -0.6221
vn 0.4926 -0.6086 -0.6221
vn 0.4926 0.3204 0.8092
vn -0.4332 -0.8830 0.1805
vn -0.6868 0.6681 0.2862
vn 0.8954 -0.2429 -0.3731
vn 0.0320 0.4404 0.8972
vn -0.6145 0.4404 -0.6545
vn 0.1766 -0.0152 -0.9842
vn 0.8232 -0.0152 0.5676
vn 0.4332 0.8830 -0.1805
vn -0.8378 0.4198 0.3491
vn 0.7899 -0.5174 -0.3291
vn -0.0983 0.1855 0.9777
vn -0.7635 0.1855 -0.6187
vn 0.0504 -0.2831 -0.9578
vn 0.7156 -0.2831 0.6386
vt 0.000000 0.000000
vt 0.770230 0.866872
vt 0.734946 0.813188
vt 0.837670 0.753580
vt 0.952661 0.700737
vt 0.885197 0.683146
vt 0.952661 0.562813
vt 0.730764 0.929553
vt 0.681431 0.968147
vt 0.681431 0.847131
vt 0.837670 0.878652
vt 0.467947 0.924818
vt 0.535536 0.942470
vt 0.467947 0.994235
vt 0.431014 0.979068
vt 0.363190 0.967655
vt 0.431014 0.860274
vt 0.132418 0.858339
vt 0.132419 0.794098
vt 0.182305 0.776744
vt 0.232193 0.823630
vt 0.232193 0.887871
vt 0.182306 0.905225
vt 0.705132 0.847131
vt 0.665993 0.841152
vt 0.665431 0.653979
vt 0.725841 0.663207
vt 0.953180 0.497089
vt 0.908029 0.495718
vt 0.883492 0.338162
vt 0.953180 0.340277
vt 0.625854 0.847131
vt 0.603478 0.663207
vt 0.882930 0.923045
vt 0.837670 0.923077
vt 0.837670 0.753630
vt 0.907527 0.753580
vt 0.877032 0.750436
vt 0.832472 0.750436
vt 0.816419 0.562813
vt 0.885197 0.562813
vt 0.883492 0.502186
vt 0.804575 0.481936
vt 0.883492 0.338162
vt 0.771186 0.196789
vt 0.840407 0.238954
vt 0.732687 0.316737
vt 0.681431 0.938260
vt 0.603478 0.961479
vt 0.603478 0.847131
vt 0.893086 0.163668
vt 0.814142 0.143598
vt 0.893086 -0.000000
vt 0.844143 0.316737
vt 0.682229 0.330600
vt 0.603735 0.335223
vt 0.603735 0.240221
vt 0.000000 0.787868
vt 0.000000 0.706817
vt 0.064487 0.663162
vt 0.128973 0.700560
vt 0.128973 0.781612
vt 0.064487 0.825266
vt 0.797346 0.753580
vt 0.744560 0.753580
vt 0.734946 0.562813
vt 0.816419 0.562813
vt 0.203166 0.562465
vt 0.150468 0.562465
vt 0.132418 0.342902
vt 0.213755 0.342902
vt 0.804724 0.196789
vt 0.751949 0.196789
vt 0.732687 -0.000000
vt 0.814142 -0.000000
vt 0.374839 0.679741
vt 0.427655 0.679741
vt 0.444710 0.860274
vt 0.363190 0.860274
vt 0.211002 0.776744
vt 0.160088 0.775001
vt 0.132418 0.562465
vt 0.211002 0.565156
vt 0.233171 0.542235
vt 0.363190 0.503076
vt 0.363190 0.721561
vt 0.434524 0.395612
vt 0.434524 0.503076
vt 0.233171 0.365233
vt 0.481793 0.796043
vt 0.467947 0.665224
vt 0.592342 0.665224
vt 0.732687 0.240221
vt 0.603735 0.198504
vt 0.732687 -0.000000
vt 0.465923 0.596183
vt 0.363190 0.679741
vt 0.363190 0.503076
vt 0.445695 0.270173
vt 0.233171 0.201719
vt 0.233171 0.066632
vt 0.350559 0.000000
vt 0.467947 0.068454
vt 0.467947 0.203540
vt 0.350559 0.270173
vt 0.493005 0.000000
vt 0.580982 -0.000000
vt 0.603735 0.338162
vt 0.467947 0.338162
vt 0.110367 0.339566
vt 0.040822 0.342902
vt -0.000000 0.005149
vt 0.107340 0.000000
vt 0.734946 0.653979
vt 0.649768 0.650977
vt 0.603478 0.338162
vt 0.734946 0.342795
vt 0.573001 0.665224
vt 0.485190 0.665224
vt 0.467947 0.338162
vt 0.603478 0.338162
vt 0.046625 0.343613
vt 0.132418 0.662065
vt 0.000000 0.663162
vt 0.191892 0.342902
vt 0.233171 0.005149
vt 0.029181 0.907240
vt -0.000000 0.859170
vt 0.094624 0.825266
vt 0.555511 0.881118
vt 0.509919 0.924818
vt 0.467947 0.889128
vt 0.467947 0.796043
vt 0.534525 0.816730
vt 0.094624 0.930708
vt 0.837670 0.923077
vt 0.907469 0.923077
vt 0.862759 1.000000
vt 0.233171 0.818464
vt 0.233171 0.755310
vt 0.294176 0.721561
vt 0.355181 0.750964
vt 0.355181 0.814118
vt 0.294176 0.847868
vt 0.245816 0.847868
vt 0.291595 0.847868
vt 0.303828 0.972337
vt 0.233171 0.972337
vt 0.195292 0.983717
vt 0.149562 0.983717
vt 0.132418 0.905225
vt 0.203000 0.905225
vt 0.759404 0.880534
vt 0.804409 0.878652
vt 0.804409 0.967036
vt 0.734946 0.969940
vt 0.921486 0.171025
vt 0.966709 0.171025
vt 0.981936 0.295000
vt 0.912137 0.295000
vt 0.303828 0.847868
vt 0.344263 0.847868
vt 0.337667 0.948396
vt 0.844143 0.171025
vt 0.881442 0.179288
vt 0.844143 0.316737
vt 0.893086 0.000000
vt 0.915197 0.000471
vt 0.893086 0.146367
vt 0.952661 0.570252
vt 0.991176 0.562813
vt 0.991176 0.709045
vt 0.912137 0.186023
vt 0.954285 0.011998
vt 0.953179 0.343268
vt 0.977409 0.338162
vt 0.990577 0.540260
vt 0.953179 0.548141
vt 0.746073 0.338162
vt 0.770825 0.338184
vt 0.773150 0.562813
vt 0.734946 0.562779
vt 0.595548 0.973023
vt 0.569608 0.970536
vt 0.555511 0.796043
vt 0.595548 0.799882
vt 0.949450 0.753580
vt 0.974865 0.753580
vt 0.987506 0.977542
vt 0.948279 0.977542
vt 0.791185 0.338162
vt 0.804575 0.562779
vt 0.913339 0.753580
vt 0.939742 0.753580
vt 0.948279 0.973090
vt 0.907527 0.973090
s 1
usemtl Material.001
f 2/1/1 1/1/1 6/1/1 5/1/1 4/1/1 3/1/1
f 2/2/2 3/3/2 7/4/2
f 5/5/3 6/6/3 7/7/3
f 3/8/4 4/9/4 7/10/4
f 1/11/5 2/2/5 7/4/5
f 6/12/6 1/13/6 7/14/6
f 4/15/7 5/16/7 7/17/7
f 9/1/1 8/1/1 13/1/1 12/1/1 11/1/1 10/1/1
f 15/18/8 16/19/8 17/20/8 18/21/8 19/22/8 14/23/8
f 9/24/9 10/25/9 16/26/9 15/27/9
f 12/28/10 13/29/10 19/30/10 18/31/10
f 10/25/11 11/32/11 17/33/11 16/26/11
f 8/1/12 9/1/12 15/1/12 14/1/12
f 13/34/13 8/35/13 14/36/13 19/37/13
f 11/38/14 12/39/14 18/40/14 17/41/14
f 21/1/15 20/1/15 25/1/15 24/1/15 23/1/15 22/1/15
f 21/42/16 22/43/16 26/44/16
f 24/45/17 25/46/17 26/47/17
f 22/48/18 23/49/18 26/50/18
f 20/51/19 21/52/19 26/53/19
f 25/46/20 20/54/20 26/47/20
f 23/55/21 24/56/21 26/57/21
f 28/1/15 27/1/15 32/1/15 31/1/15 30/1/15 29/1/15
f 34/58/22 35/59/22 36/60/22 37/61/22 38/62/22 33/63/22
f 28/64/23 29/65/23 35/66/23 34/67/23
f 31/1/24 32/1/24 38/1/24 37/1/24
f 29/68/25 30/69/25 36/70/25 35/71/25
f 27/72/26 28/73/26 34/74/26 33/75/26
f 32/76/27 27/77/27 33/78/27 38/79/27
f 30/80/28 31/81/28 37/82/28 36/83/28
f 40/1/29 39/1/29 44/1/29 43/1/29 42/1/29 41/1/29
f 40/84/30 41/85/30 45/86/30
f 43/87/31 44/88/31 45/89/31
f 41/90/32 42/91/32 45/92/32
f 39/93/33 40/94/33 45/95/33
f 44/96/34 39/97/34 45/98/34
f 42/99/35 43/87/35 45/89/35
f 47/1/29 46/1/29 51/1/29 50/1/29 49/1/29 48/1/29
f 53/100/36 54/101/36 55/102/36 56/103/36 57/104/36 52/105/36
f 47/106/37 48/107/37 54/108/37 53/109/37
f 50/110/38 51/111/38 57/112/38 56/113/38
f 48/114/39 49/115/39 55/116/39 54/117/39
f 46/118/40 47/119/40 53/120/40 52/121/40
f 51/122/41 46/70/41 52/123/41 57/124/41
f 49/125/42 50/110/42 56/113/42 55/126/42
f 59/1/43 58/1/43 63/1/43 62/1/43 61/1/43 60/1/43
f 59/127/44 60/128/44 64/129/44
f 62/130/45 63/131/45 64/132/45
f 60/133/46 61/134/46 64/132/46
f 58/135/47 59/127/47 64/129/47
f 63/136/48 58/137/48 64/138/48
f 61/134/49 62/130/49 64/132/49
f 66/1/43 65/1/43 70/1/43 69/1/43 68/1/43 67/1/43
f 72/139/50 73/140/50 74/141/50 75/142/50 76/143/50 71/144/50
f 66/145/51 67/146/51 73/147/51 72/148/51
f 69/1/52 70/1/52 76/1/52 75/1/52
f 67/149/53 68/150/53 74/151/53 73/152/53
f 65/153/54 66/154/54 72/155/54 71/156/54
f 70/157/55 65/158/55 71/159/55 76/160/55
f 68/1/56 69/1/56 75/1/56 74/1/56
f 78/1/57 77/1/57 82/1/57 81/1/57 80/1/57 79/1/57
f 78/161/58 79/162/58 83/163/58
f 81/164/59 82/165/59 83/166/59
f 79/167/60 80/168/60 83/169/60
f 77/170/61 78/171/61 83/172/61
f 82/165/62 77/173/62 83/166/62
f 80/168/63 81/174/63 83/169/63
f 85/1/57 84/1/57 89/1/57 88/1/57 87/1/57 86/1/57
f 91/1/64 92/1/64 93/1/64 94/1/64 95/1/64 90/1/64
f 85/175/65 86/176/65 92/177/65 91/178/65
f 88/179/66 89/180/66 95/181/66 94/182/66
f 86/183/67 87/184/67 93/185/67 92/186/67
f 84/187/68 85/188/68 91/189/68 90/190/68
f 89/180/69 84/191/69 90/192/69 95/181/69
f 87/193/70 88/194/70 94/195/70 93/196/70
