# Blender 4.3.2
# www.blender.org
mtllib Flow02.mtl
o Cube.001
v 0.316688 28.674603 0.045734
v 0.870309 26.637455 0.494182
v 0.433006 26.636395 0.465348
v 0.425173 26.578619 1.152031
v 0.941026 26.584242 1.084054
v 1.541688 9.895932 -2.057806
v 0.430202 9.874622 -1.903407
v 0.584453 9.773293 -0.790528
v 1.698598 9.778352 -0.946220
v 1.661057 -0.613890 -2.225023
v 0.587142 -0.901928 -2.054640
v 0.439618 -0.896557 -0.948398
v 1.857829 -0.614058 -0.828673
v 0.985707 24.651497 0.793654
v 0.434958 24.575459 0.880801
v 0.550850 22.083128 1.550461
v 1.278496 22.120934 1.453885
v 1.287518 20.038176 0.620287
v 0.535933 19.917788 0.680889
v 0.639757 19.713539 1.388685
v 1.381415 19.729111 1.288316
v 1.478934 15.111404 -1.378153
v 0.383498 15.012432 -1.240013
v 0.536828 14.784524 -0.172388
v 1.638358 14.733126 -0.336274
v 0.219826 -0.148115 -2.060878
v 0.431794 -0.148113 -0.584772
v 0.622485 28.555635 -0.312915
v 0.341415 28.612265 -0.249591
v 0.734473 29.013142 -0.192994
v 0.320746 30.848091 -1.427417
v 0.536551 28.950102 -0.003674
v 1.772180 -0.921761 -1.527674
v 1.162728 -0.921762 -0.720493
v 0.704254 24.583675 0.737074
v 0.795933 24.741493 1.464716
v 1.040715 25.991390 0.918073
v 0.295680 26.288563 0.984667
v 0.930082 22.155308 1.634457
v 1.474726 20.085367 0.976772
v 0.885418 19.989206 0.502194
v 0.448510 19.849487 1.063535
v 1.029466 19.741131 1.490263
v 0.956889 9.913974 -2.188016
v 0.297385 9.786739 -1.318896
v 1.170433 9.813268 -0.660300
v 1.829486 9.809414 -1.532584
v 0.922032 -0.111074 -2.451776
v 0.040897 -0.111076 -1.286977
v 1.205696 -0.111074 -0.405843
v 2.086830 -0.111078 -1.570642
v 0.676693 26.856724 1.116954
v 0.900793 15.177971 -1.491383
v 0.252766 14.903423 -0.679930
v 1.116176 14.736914 -0.044081
v 1.765646 14.949781 -0.885921
v 0.508106 30.572155 -1.716783
v 0.622989 30.746811 -1.485325
v 0.212096 30.631357 -1.616669
v 1.063864 -1.178631 -1.428806
v 0.428837 30.573952 -1.147686
v 0.423451 30.844336 -1.276666
v 0.461998 31.244684 -1.390197
v 0.332527 31.850357 -1.447318
v 0.184746 31.586126 -1.451300
v 0.334180 31.355583 -2.011787
v 0.439347 30.344109 -1.303348
v 0.630394 31.837446 -1.513599
v 0.741343 31.538475 -1.587567
v 0.641755 30.514944 -1.272909
v 0.738673 31.032490 -1.540430
v 0.885293 31.762180 -1.668794
v 1.059149 31.633015 -1.891021
v 0.284527 31.327036 -2.037222
v 0.660976 30.381687 -1.445624
v 0.792042 30.841780 -1.799601
v 1.125021 31.471767 -2.148843
v 0.894721 31.117153 -2.162584
v 1.069932 31.292479 -2.398286
v 0.422108 30.132103 -1.151702
v 0.615424 30.619423 -1.852276
v 0.899498 31.130636 -2.612565
v 0.406926 30.264248 -1.568404
v 0.443482 30.473833 -1.795832
v 0.634498 30.985500 -2.728973
v 0.460985 30.877972 -2.422942
v 0.247357 30.679638 -2.177210
v 0.315523 30.940022 -2.777771
v 0.416225 30.341377 -1.307359
v 0.156625 30.572712 -1.786984
v 0.002277 30.956003 -2.706804
v -0.166958 30.952972 -2.234684
v 0.261363 31.371820 -1.984323
v 0.426579 30.138260 -1.127767
v 0.198628 30.358536 -1.402974
v -0.258917 31.043262 -2.544789
v 0.042161 30.711178 -1.600725
v -0.426060 31.187695 -2.331936
v 0.185475 30.482332 -1.242369
v -0.482325 31.366507 -2.068851
v -0.250523 31.353548 -1.702547
v 0.139235 30.885841 -1.400953
v -0.408310 31.540760 -1.809420
v -0.226587 31.690279 -1.603923
v 0.032629 31.798809 -1.478422
vn -0.2922 -0.9406 0.1726
vn -0.1088 -0.9815 -0.1573
vn -0.1441 -0.9237 0.3551
vn -0.1350 -0.0558 -0.9893
vn 0.2087 -0.0512 -0.9766
vn 0.2506 0.2068 -0.9457
vn 0.4622 0.0287 0.8863
vn 0.4708 0.0200 0.8820
vn 0.6016 0.1129 0.7908
vn -0.3987 0.0719 0.9143
vn -0.1455 0.2279 0.9628
vn -0.2235 -0.0091 0.9747
vn 0.9916 0.0713 0.1082
vn 0.9714 0.1007 0.2149
vn 0.7548 0.2184 0.6185
vn -0.8820 -0.0903 0.4625
vn -0.9518 -0.0209 0.3061
vn -0.9854 0.0010 0.1700
vn 0.4864 -0.1353 0.8632
vn -0.2349 -0.1908 0.9531
vn -0.2360 -0.1836 0.9542
vn -0.2465 -0.0752 0.9662
vn 0.4153 -0.1807 0.8916
vn 0.4654 -0.0923 0.8803
vn 0.2967 -0.3592 0.8849
vn 0.8906 -0.1799 -0.4176
vn 0.8795 -0.0922 -0.4670
vn 0.8840 -0.3590 -0.2994
vn -0.9155 -0.1550 -0.3711
vn -0.7947 -0.3056 -0.5244
vn -0.2758 0.3621 0.8904
vn -0.3983 0.4404 0.8046
vn 0.4812 0.3699 0.7948
vn 0.9171 0.2767 0.2869
vn 0.0439 0.5406 0.8401
vn 0.5652 -0.1800 -0.8051
vn 0.9167 -0.0075 -0.3994
vn -0.2269 -0.2084 0.9514
vn -0.4876 0.2326 -0.8415
vn -0.4805 0.1916 -0.8558
vn -0.4792 0.1777 -0.8595
vn -0.9745 0.0663 -0.2143
vn -0.9562 0.0478 -0.2888
vn -0.9745 0.0637 -0.2151
vn 0.9758 -0.0177 0.2182
vn 0.9756 -0.0186 0.2190
vn 0.9638 -0.0206 0.2658
vn -0.9751 0.0214 -0.2209
vn -0.2160 -0.0523 0.9750
vn -0.2161 -0.0453 0.9753
vn 0.4803 -0.1706 0.8604
vn 0.4799 -0.1830 0.8580
vn 0.4953 -0.0444 0.8676
vn 0.8657 0.0441 -0.4986
vn 0.8670 0.0471 -0.4961
vn 0.8711 0.1411 -0.4703
vn -0.0735 -0.9439 -0.3221
vn 0.1933 -0.8629 -0.4671
vn -0.7790 0.1852 -0.5990
vn -0.9976 -0.0449 -0.0523
vn -0.3087 0.9393 0.1500
vn 0.7791 0.6235 -0.0661
vn 0.3356 0.0065 -0.9420
vn -0.8819 0.1334 0.4522
vn -0.2159 -0.0020 0.9764
vn 0.9614 0.0061 0.2750
vn 0.2476 0.2348 -0.9400
vn -0.2036 -0.0667 0.9768
vn -0.8756 -0.1010 0.4723
vn 0.4862 -0.1561 0.8598
vn 0.1304 -0.2122 -0.9685
vn -0.2540 -0.3460 -0.9032
vn -0.1245 -0.1285 -0.9839
vn -0.4781 -0.0916 -0.8735
vn -0.9135 -0.3884 0.1212
vn -0.8733 -0.0925 0.4783
vn -0.9773 -0.1793 0.1128
vn 0.9710 -0.1808 0.1564
vn 0.9321 -0.3595 0.0440
vn 0.9738 -0.0923 0.2076
vn 0.0395 -0.2545 -0.9663
vn 0.4082 -0.3591 -0.8393
vn -0.9561 0.0474 -0.2893
vn -0.4854 0.2095 -0.8488
vn -0.2276 -0.2045 0.9520
vn -0.9751 0.0217 -0.2209
vn 0.4978 -0.0371 0.8665
vn 0.8705 0.1480 -0.4694
vn -0.4645 -0.0710 -0.8827
vn 0.8181 0.0577 -0.5721
vn 0.8354 0.1272 -0.5347
vn 0.8449 0.1523 -0.5127
vn -0.9297 -0.0206 -0.3677
vn 0.2403 0.0762 -0.9677
vn 0.2410 0.0747 -0.9676
vn -0.4774 0.0661 -0.8762
vn -0.4772 0.0678 -0.8762
vn -0.9520 -0.2435 -0.1856
vn -0.8772 -0.0222 0.4796
vn -0.8772 -0.0205 0.4797
vn -0.2357 -0.1688 0.9570
vn -0.2368 -0.1956 0.9517
vn 0.9697 0.0030 0.2442
vn 0.9698 0.0027 0.2439
vn -0.8733 -0.4662 -0.1411
vn -0.2395 -0.3828 0.8923
vn 0.3938 -0.8698 0.2973
vn -0.8779 -0.0973 0.4688
vn -0.8779 -0.0974 0.4688
vn 0.2173 0.2474 -0.9442
vn 0.2177 0.2591 -0.9410
vn -0.7781 -0.6203 0.0990
vn -0.8498 -0.5267 0.0204
vn -0.8234 -0.5670 -0.0239
vn -0.5601 -0.3629 0.7447
vn -0.5947 0.0786 0.8001
vn -0.8350 -0.1116 0.5389
vn 0.6288 0.7684 -0.1195
vn 0.3205 0.6280 -0.7091
vn 0.6508 0.6522 -0.3887
vn -0.2274 0.7472 -0.6245
vn -0.3159 0.7210 -0.6167
vn -0.5544 0.8118 0.1834
vn -0.0120 0.7719 -0.6356
vn -0.1227 0.9128 -0.3896
vn -0.9647 0.1103 0.2391
vn -0.2050 0.5674 0.7975
vn -0.0252 -0.5971 -0.8018
vn 0.7532 -0.0037 0.6578
vn 0.7126 -0.1849 0.6768
vn 0.0967 0.0653 0.9932
vn 0.8207 -0.5696 0.0456
vn -0.1305 -0.7686 0.6262
vn -0.0296 -0.8901 -0.4548
vn -0.5031 -0.5769 0.6435
vn 0.1686 -0.7944 -0.5835
vn -0.3829 -0.8316 -0.4022
vn 0.7768 -0.5615 -0.2852
vn 0.9119 -0.4060 0.0604
vn -0.1184 -0.9201 -0.3734
vn -0.1491 0.9568 -0.2496
vn 0.5019 0.4379 -0.7458
vn 0.0224 0.1443 -0.9893
vn 0.1824 0.1889 -0.9649
vn -0.5051 0.3815 -0.7741
vn -0.3682 0.2132 -0.9050
vn -0.4290 0.1619 -0.8887
vn -0.4663 0.1211 -0.8763
vn 0.3906 0.9197 -0.0406
vn 0.1222 0.9884 0.0900
vn 0.5380 0.8263 -0.1668
vn 0.5478 0.5395 -0.6394
vn -0.5110 0.8131 -0.2789
vn 0.9808 -0.1707 -0.0940
vn -0.7418 0.5282 -0.4133
vn 0.7367 0.2661 -0.6216
vn -0.8545 -0.2843 0.4347
vn -0.7766 -0.2363 0.5840
vn 0.2683 0.0954 -0.9586
vn 0.0896 0.9842 0.1526
vn -0.1152 0.0986 0.9884
vn -0.1801 0.8287 -0.5299
vn -0.1516 0.8534 -0.4987
vn -0.3043 0.8107 -0.5002
vn 0.2220 0.7664 -0.6028
vn 0.2454 -0.5140 -0.8219
vn 0.9397 0.3175 -0.1273
vn 0.9991 0.0154 -0.0401
vn 0.0714 0.3415 0.9371
vn 0.7887 -0.0128 0.6146
vn 0.2080 0.1178 0.9710
vn 0.4039 -0.7725 -0.4900
vn -0.1748 0.5871 -0.7904
vn 0.0507 0.7898 -0.6112
vn 0.2169 0.6081 -0.7637
vn -0.2182 0.1478 -0.9647
vn 0.3860 0.2070 -0.8990
vn 0.9148 0.3087 0.2606
vt 0.285255 0.908602
vt 0.301339 0.929224
vt 0.277585 0.930363
vt 0.073461 0.193897
vt 0.079272 0.191547
vt 0.081179 0.336728
vt 0.209381 0.717356
vt 0.221705 0.715845
vt 0.210914 0.799118
vt 0.103106 0.189199
vt 0.117975 0.131223
vt 0.103206 0.272336
vt 0.103106 0.271001
vt 0.082932 0.149268
vt 0.085728 0.130639
vt 0.117419 0.343056
vt 0.124421 0.140356
vt 0.211850 0.641862
vt 0.202625 0.642249
vt 0.200131 0.716277
vt 0.249222 0.008133
vt 0.225310 0.024485
vt 0.228092 0.000000
vt 0.017727 0.987605
vt 0.042038 0.971372
vt 0.038810 0.997144
vt 0.279717 0.582658
vt 0.289406 0.565357
vt 0.276746 0.645529
vt 0.115412 0.122910
vt 0.151332 0.066512
vt 0.215089 0.866542
vt 0.238853 0.937229
vt 0.230446 0.935283
vt 0.068343 0.129083
vt 0.046222 0.054399
vt 0.218540 0.492088
vt 0.274724 0.862381
vt 0.268199 0.723262
vt 0.279929 0.726176
vt 0.167049 0.500541
vt 0.126878 0.341526
vt 0.180858 0.498021
vt 0.062525 0.503765
vt 0.049187 0.496909
vt 0.101191 0.346320
vt 0.196678 0.660555
vt 0.238364 0.336015
vt 0.224151 0.336589
vt 0.251358 0.488077
vt 0.232510 0.488793
vt 0.034650 0.658929
vt 0.015734 0.656475
vt 0.272052 0.524851
vt 0.267320 0.579433
vt 0.264625 0.523754
vt 0.284614 -0.000000
vt 0.290300 0.021634
vt 0.257250 0.023477
vt 0.262998 0.002648
vt 0.200131 0.006887
vt 0.159208 0.068883
vt 0.308800 0.003433
vt 0.318292 0.306762
vt 0.318631 0.316545
vt 0.308800 0.316484
vt 0.308800 0.306515
vt 0.222601 0.857416
vt 0.093846 0.335062
vt 0.071827 0.338579
vt 0.105491 0.347221
vt 0.224621 0.641095
vt 0.275654 0.045765
vt 0.300887 0.043415
vt 0.165522 0.998208
vt 0.155765 0.974193
vt 0.181100 0.973303
vt 0.059270 0.987301
vt 0.267717 0.643523
vt 0.149629 0.058250
vt 0.041417 0.068912
vt 0.257250 0.859456
vt 0.182225 0.662377
vt 0.257250 0.334293
vt 0.031164 0.492084
vt 0.281602 0.523698
vt 0.207335 0.858387
vt 0.193345 0.000000
vt 0.257250 0.413524
vt 0.269461 0.410657
vt 0.124617 0.194595
vt 0.000000 0.972326
vt 0.003238 0.656349
vt 0.232306 0.652799
vt 0.298215 0.289190
vt 0.279402 0.291091
vt 0.200131 0.975722
vt 0.163270 0.662581
vt 0.206661 0.025754
vt 0.048862 0.659934
vt 0.194317 1.000000
vt 0.257250 0.932247
vt 0.264530 0.908602
vt 0.298931 0.952232
vt 0.274755 0.953093
vt 0.148677 0.504085
vt 0.292190 0.721627
vt 0.292190 0.859713
vt 0.308800 0.406119
vt 0.290702 0.410657
vt 0.019217 0.490422
vt 0.267156 0.721627
vt 0.257250 0.720136
vt 0.137090 0.130283
vt 0.008057 0.000000
vt 0.000000 0.005615
vt 0.257250 0.995065
vt 0.248137 0.998863
vt 0.324423 0.097945
vt 0.323785 0.111571
vt 0.318262 0.109468
vt 0.330230 0.099088
vt 0.332642 0.112499
vt 0.319250 0.212958
vt 0.308801 0.205517
vt 0.317217 0.194777
vt 0.276057 0.881242
vt 0.292911 0.889701
vt 0.274440 0.882372
vt 0.273797 0.880190
vt 0.271307 0.862381
vt 0.145566 0.000000
vt 0.301849 0.000000
vt 0.422952 0.000000
vt 0.500000 0.000000
vt 0.161898 0.000000
vt 0.026335 0.000000
vt 0.314411 0.000000
vt 0.510654 0.000000
vt 0.341911 -0.000000
vt 0.343172 0.012429
vt 0.335273 0.010207
vt 0.308801 0.253419
vt 0.320658 0.246567
vt 0.320658 0.258959
vt 0.330068 0.018495
vt 0.337705 0.024198
vt 0.325031 0.154031
vt 0.317431 0.157125
vt 0.320199 0.140755
vt 0.328885 0.031842
vt 0.278892 0.900406
vt 0.293890 0.901345
vt 0.285255 0.906742
vt 0.275200 0.908603
vt 0.257250 0.900296
vt 0.259239 0.893730
vt 0.265353 0.906247
vt 0.309447 0.213958
vt 0.311013 0.219257
vt 0.308801 0.242375
vt 0.315098 0.237162
vt 0.315418 0.246567
vt 0.288747 0.867167
vt 0.294244 0.865550
vt 0.299562 0.873755
vt 0.299466 0.893015
vt 0.301446 0.883380
vt 0.309333 0.195608
vt 0.310524 0.186000
vt 0.309153 0.224333
vt 0.315418 0.219257
vt 0.315105 0.227623
vt 0.257250 0.872731
vt 0.064364 0.000000
vt 0.311294 0.306515
vt 0.308801 0.306347
vt 0.311294 0.258959
vt 0.312726 0.324322
vt 0.308801 0.329210
vt 0.308801 0.316545
vt 0.773205 0.000000
vt 0.965364 0.000000
vt 1.000000 0.000000
vt 0.319946 0.054784
vt 0.314632 0.065822
vt 0.312289 0.057078
vt 0.336815 0.097945
vt 0.338173 0.107017
vt 0.308801 0.157947
vt 0.314126 0.141313
vt 0.327694 0.071205
vt 0.318194 0.078451
vt 0.335084 0.093805
vt 0.325845 0.096685
vt 0.323999 0.020937
vt 0.342583 0.118925
vt 0.316667 0.097945
vt 0.332764 0.065604
vt 0.348467 0.084925
vt 0.343018 0.089649
vt 0.328214 0.177245
vt 0.318343 0.176128
vt 0.308801 0.175870
vt 0.316934 0.046821
vt 0.308800 0.043408
vt 0.336809 0.177951
vt 0.335847 0.052548
vt 0.326530 0.049820
vt 0.317516 0.140471
vt 0.308800 0.138917
vt 0.343172 0.054784
vt 0.337080 0.140153
vt 0.327546 0.140755
vt 0.308800 0.068328
vt 0.308800 0.097398
vt 0.344873 0.138877
vt 0.312094 0.177951
vt 0.319250 0.179426
vt 0.632532 0.000000
vt 0.922462 0.000000
vt 0.328264 0.142165
vt 0.328728 0.150954
s 1
usemtl Material.001
f 12/1/1 60/2/2 34/3/3
f 35/4/4 14/5/5 18/6/6
f 39/7/7 17/8/8 36/9/9
f 36/10/10 4/11/11 16/12/12
f 17/13/13 37/14/14 5/15/15
f 42/16/16 16/12/17 38/17/18
f 17/8/8 39/7/7 43/18/19
f 20/19/20 43/18/21 16/20/22
f 13/21/23 50/22/24 34/23/25
f 10/24/26 51/25/27 33/26/28
f 3/27/29 38/28/18 29/29/30
f 4/11/11 52/30/31 1/31/32
f 52/32/33 30/33/34 32/34/35
f 2/35/36 30/36/34 37/14/37
f 43/18/21 20/19/20 24/37/38
f 53/38/39 19/39/40 41/40/41
f 54/41/42 19/42/43 23/43/44
f 25/44/45 56/45/46 21/46/47
f 7/47/48 54/41/42 23/43/44
f 46/48/49 24/37/38 8/49/50
f 25/50/51 55/51/52 46/48/53
f 47/52/54 6/53/55 56/45/56
f 35/54/4 2/55/36 14/56/5
f 60/57/2 11/58/57 10/59/58 33/60/58
f 59/61/59 29/62/30 1/31/60
f 60/57/2 12/63/1 11/58/57
f 31/64/61 58/65/62 57/66/63
f 31/64/61 57/66/63 59/67/59
f 16/12/17 4/11/64 38/17/18
f 39/7/65 36/9/10 16/20/12
f 36/9/9 17/8/8 5/68/15
f 40/69/66 37/14/14 17/13/13
f 41/70/67 35/4/4 18/6/6
f 16/20/12 43/18/68 39/7/65
f 42/16/16 20/71/69 16/12/17
f 21/72/70 17/8/8 43/18/19
f 10/59/71 11/58/72 48/73/73
f 11/58/72 26/74/74 48/73/73
f 12/75/75 27/76/76 49/77/77
f 13/78/78 33/26/79 51/25/80
f 3/27/81 28/79/82 2/55/36
f 38/17/18 4/11/64 1/31/60
f 38/17/18 1/31/60 29/62/30
f 5/68/15 30/33/34 52/32/33
f 52/30/31 32/80/35 1/31/32
f 30/36/34 2/35/36 28/81/82
f 54/41/42 42/16/83 19/42/43
f 23/82/84 19/39/40 53/38/39
f 55/51/85 43/18/21 24/37/38
f 56/45/46 40/69/66 21/46/47
f 45/83/86 54/41/42 7/47/48
f 46/48/53 9/84/87 25/50/51
f 24/37/38 46/48/49 55/51/85
f 6/53/55 22/85/88 56/45/56
f 35/54/4 15/86/89 3/27/81
f 2/55/36 35/54/4 3/27/81
f 4/87/11 36/9/10 52/32/31
f 37/14/37 14/5/90 2/35/36
f 31/88/61 59/61/59 1/31/32
f 31/88/61 1/31/32 32/80/35
f 14/5/90 37/14/37 40/69/91 18/6/92
f 41/89/41 19/90/40 15/86/89 35/54/4
f 19/42/43 42/16/83 38/17/18 15/91/93
f 48/92/73 44/93/94 6/53/95 10/24/71
f 17/8/13 21/72/47 40/94/66
f 48/73/73 26/74/74 7/95/96 44/96/97
f 45/83/86 7/47/48 26/97/98 49/77/77
f 49/77/77 27/76/76 8/98/99 45/83/100
f 50/22/101 46/48/49 8/49/50 27/99/102
f 50/22/24 13/21/23 9/84/87 46/48/53
f 51/25/80 47/52/103 9/100/104 13/78/78
f 51/25/27 10/24/26 6/53/55 47/52/54
f 11/101/105 12/75/75 49/77/77 26/97/98
f 34/3/106 50/102/101 27/103/102 12/1/106
f 34/3/107 60/2/107 33/104/107 13/105/107
f 29/29/30 28/79/82 3/27/29
f 24/106/108 20/71/69 42/16/16 54/41/109
f 5/15/15 37/14/14 30/36/34
f 41/40/67 18/107/6 22/108/110 53/38/111
f 55/51/52 25/50/51 21/72/70 43/18/19
f 22/85/88 18/6/92 40/69/91 56/45/56
f 44/96/97 7/95/96 23/109/84 53/110/39
f 44/93/94 53/111/111 22/85/110 6/53/95
f 24/106/108 54/41/109 45/83/100 8/98/99
f 47/52/103 56/45/46 25/44/45 9/100/104
f 59/112/59 57/113/63 28/79/82 29/29/30
f 38/17/18 3/114/29 15/91/93
f 5/68/15 52/32/33 36/9/9
f 58/115/62 30/36/34 28/81/82 57/116/63
f 32/34/35 30/33/34 58/117/62 31/118/61
f 95/119/112 97/120/113 90/121/114
f 99/122/115 102/123/116 97/120/117
f 92/124/118 100/125/119 101/126/120
f 66/127/121 78/128/122 74/129/123
f 93/130/124 65/131/125 66/127/121
f 67/132/126 74/133/123 80/134/127
f 80/134/127 74/133/123 89/135/128
f 67/132/129 70/136/130 61/137/131
f 67/132/129 75/138/132 70/136/130
f 80/134/133 83/139/134 75/138/132
f 94/140/135 95/141/112 83/142/134
f 94/143/135 61/144/131 95/145/112
f 84/146/136 83/142/134 90/147/137
f 90/147/137 83/142/134 95/141/112
f 97/120/113 95/119/112 99/122/115
f 81/148/138 76/149/139 75/150/132
f 87/151/140 84/146/136 90/147/137
f 86/152/141 82/153/142 85/154/143
f 88/155/144 86/152/141 85/154/143
f 96/156/145 92/157/118 91/158/146
f 98/159/147 92/124/118 96/160/145
f 69/161/148 68/162/149 72/163/150
f 69/164/148 72/165/150 73/166/151
f 79/167/152 78/128/153 77/168/154
f 82/153/142 78/128/153 79/167/152
f 86/152/141 78/128/153 82/153/142
f 103/169/155 101/126/156 100/125/157
f 101/126/156 103/169/155 104/170/158
f 65/171/159 105/172/160 64/173/161
f 65/131/125 69/164/162 66/127/121
f 92/157/163 101/174/164 93/130/124
f 101/174/164 65/131/125 93/130/124
f 66/127/121 69/164/162 78/128/122
f 74/129/165 78/128/153 86/152/141
f 74/129/165 86/152/141 92/157/163
f 74/129/165 92/157/163 93/130/124
f 66/175/121 74/133/123 67/132/126
f 93/176/124 66/177/121 94/178/166
f 99/179/115 95/180/112 61/181/131
f 89/135/167 83/139/134 80/134/133
f 67/132/129 80/134/133 75/138/132
f 83/139/134 89/135/167 94/182/168
f 61/183/131 94/182/135 67/184/129
f 70/185/130 62/186/169 61/187/131
f 99/122/115 61/188/131 62/189/169 102/123/116
f 71/190/170 70/191/130 75/150/132 76/149/139
f 70/185/130 71/192/170 62/186/169
f 63/193/171 71/192/170 72/194/150 68/195/149
f 71/192/170 63/193/171 62/186/169
f 87/151/140 81/196/172 84/146/136
f 63/197/171 102/123/116 62/189/169
f 68/195/149 64/198/173 63/193/171
f 71/192/170 76/199/139 77/200/174 73/201/151
f 73/201/151 72/194/150 71/192/170
f 76/149/139 81/148/138 82/202/142 79/203/152
f 79/203/152 77/204/154 76/149/139
f 81/196/172 87/151/140 88/205/144 85/206/143
f 85/207/143 82/202/142 81/148/172
f 87/151/140 90/147/137 96/208/145 91/209/146
f 91/209/146 88/205/144 87/151/140
f 90/121/114 97/120/113 100/210/119 98/211/147
f 98/212/147 96/208/145 90/147/114
f 97/120/117 102/123/116 104/213/158 103/214/155
f 103/214/155 100/210/157 97/120/117
f 102/215/116 63/193/171 64/198/161 105/216/160
f 105/217/160 104/213/175 102/123/116
f 86/152/141 88/155/144 91/158/146 92/157/163
f 64/173/173 68/162/149 69/161/148 65/171/176
f 100/125/119 92/124/118 98/159/147
f 73/166/151 77/168/174 78/128/122 69/164/162
f 104/170/175 105/218/160 65/219/159 101/126/177
f 89/135/178 74/133/165 93/220/124 94/182/166
f 67/184/126 94/182/166 66/221/121
f 83/222/134 84/223/136 81/148/172 75/150/132
