# Blender 4.3.1
# www.blender.org
mtllib IcePick00.mtl
o 锥体
v 0.019124 2.000888 0.057593
v -0.013597 -0.498885 -0.616692
v 0.130899 0.628058 -0.280471
v 0.035024 1.188715 -0.151308
v 0.209124 0.513229 0.101978
v 0.755826 -2.505284 0.451450
v -0.930650 -2.488831 0.466994
v -0.304434 0.378803 0.179853
v -0.004608 -2.479794 -0.950724
v -0.010142 -1.859483 -0.696599
v -0.201153 -2.490910 -0.538813
v -0.196243 -1.148761 -0.186906
v -0.289790 -1.448753 -0.210622
v -0.165869 -0.559373 -0.087796
v -0.164296 0.024312 -0.102282
v -0.671565 -2.489912 0.170868
v -0.384219 -1.314228 0.119731
v -0.567120 -0.568475 0.254424
v -0.211910 -2.483951 0.473965
v -0.212073 -1.154600 0.331166
v -0.113454 -1.903274 0.266911
v -0.038378 0.292069 0.054394
v 0.333539 -1.343474 0.233910
v -0.003156 0.801870 0.143122
v 0.204683 -0.463966 0.224470
v 0.472028 -2.504911 -0.008068
v 0.308883 -1.528302 -0.047184
v 0.277036 -0.240213 -0.106861
v 0.079398 -1.946772 -0.381471
v 0.131732 1.490650 0.088221
v 0.045918 -1.241033 -0.530507
v 0.200419 -2.504514 -0.573497
v 0.494590 -0.956475 0.281254
v 0.077323 -1.111393 -0.209633
v -0.070928 0.561760 -0.053989
v -0.072512 -0.578999 0.231542
v 0.529026 -1.423087 0.221864
vn 0.6713 -0.6407 -0.3726
vn -0.0185 -0.3858 -0.9224
vn 0.0257 0.4099 -0.9118
vn -0.6442 -0.6653 -0.3775
vn 0.3062 0.1026 -0.9464
vn -0.6301 0.1152 -0.7679
vn -0.0722 -0.0008 -0.9974
vn -0.8502 0.0306 -0.5255
vn -0.7479 0.2061 -0.6310
vn -0.8192 0.1636 -0.5497
vn -0.7295 0.1228 -0.6728
vn -0.7450 0.0919 -0.6607
vn 0.2439 0.2324 -0.9416
vn -0.9219 0.1933 0.3358
vn -0.5689 -0.6914 -0.4453
vn -0.8007 -0.4725 0.3683
vn -0.7916 0.2402 0.5618
vn -0.0866 0.2742 -0.9578
vn 0.1115 0.0903 0.9896
vn 0.0582 -0.6180 0.7840
vn 0.0616 0.1099 0.9920
vn 0.7510 -0.4643 0.4695
vn 0.4071 0.1284 0.9043
vn -0.1238 0.0412 0.9915
vn -0.0338 0.1119 0.9932
vn 0.7942 0.0681 0.6038
vn 0.6848 0.0336 0.7280
vn 0.1292 0.0049 0.9916
vn 0.8619 0.2115 0.4609
vn 0.6191 -0.7008 -0.3544
vn 0.7455 0.1149 -0.6565
vn 0.8424 0.1187 -0.5256
vn 0.8458 0.0068 -0.5334
vn 0.9153 0.0524 -0.3993
vn 0.8061 0.2536 -0.5347
vn -0.0077 0.9991 0.0411
vn 0.1167 0.0381 0.9924
vt 0.992093 0.151200
vt 0.910010 0.169150
vt 0.914142 0.037453
vt 0.336260 0.970842
vt 0.241416 0.970803
vt 0.298613 0.843873
vt 0.258301 0.701273
vt 0.196236 0.700028
vt 0.277450 0.566613
vt 0.180306 0.580686
vt 0.182432 0.770937
vt 0.193975 0.470356
vt 0.121091 0.731784
vt 0.186698 0.355359
vt 0.247953 0.342294
vt 0.082883 0.594955
vt 0.073515 0.965168
vt 0.000313 0.970620
vt 0.123593 0.391806
vt 0.216290 0.225948
vt 0.480769 0.263721
vt 0.337005 0.001809
vt 0.496046 0.028214
vt 0.391666 0.353426
vt 0.501106 0.383831
vt 0.460871 0.592391
vt 0.669900 0.001610
vt 0.494534 0.122912
vt 0.577255 0.234069
vt 0.559286 0.410789
vt 0.608541 0.316321
vt 0.562808 0.612100
vt 0.523128 0.661592
vt 0.548123 0.799437
vt 0.669915 0.001611
vt 0.691501 0.376860
vt 0.751968 0.477506
vt 0.804384 0.387887
vt 0.764325 0.137027
vt 0.587382 0.193436
vt 0.940821 0.138262
vt 0.878715 0.248296
vt 0.787253 0.022846
vt 0.885649 0.032346
vt 0.785884 0.156974
vt 0.954293 0.342338
vt 0.950928 0.169150
vt 0.967798 0.275980
vt 0.807242 0.305970
vt 0.772224 0.479034
vt 0.675473 0.328036
vt 0.672537 0.807254
vt 0.689946 0.615750
vt 0.852917 0.439029
vt 0.983947 0.056330
vt 0.910010 0.204990
vt 0.867168 0.312696
vt 0.860659 0.143484
vt 0.759308 0.647597
vt 0.745622 0.754719
vt 0.676473 0.979807
vt 0.182256 0.063980
vt 0.494555 0.539812
vt 0.513220 0.558075
vt 0.314485 0.173653
vt 0.318772 0.158093
vt 0.349467 0.168867
vt 0.514288 0.911228
vt 0.553829 0.136845
vt 0.766013 0.015317
vt 0.703964 0.220117
vt 0.760051 0.199556
vt 0.937340 0.629493
vt 0.946257 0.842563
vt 0.937517 0.808295
vt 0.950928 0.293810
vt 0.910010 0.315214
vt 0.945201 0.169150
vt 0.950928 0.402523
s 1
usemtl Material.001
f 32/1/1 9/2/2 10/3/3
f 9/4/2 11/5/4 10/6/3
f 10/6/3 11/5/4 31/7/5
f 12/8/6 31/7/5 11/5/4
f 31/7/5 12/8/6 2/9/7
f 14/10/8 12/8/6 13/11/9
f 2/9/7 14/10/8 15/12/10
f 13/11/9 17/13/11 14/10/8
f 35/14/12 3/15/13 15/12/10
f 18/16/14 14/10/8 17/13/11
f 14/10/8 18/16/14 15/12/10
f 16/17/15 18/16/14 17/13/11
f 16/17/15 7/18/16 18/16/14
f 8/19/17 35/14/12 18/16/14
f 35/14/12 8/19/17 4/20/18
f 20/21/19 7/22/16 19/23/20
f 7/22/16 20/21/19 18/24/14
f 36/25/21 8/26/17 18/24/14
f 6/27/22 21/28/23 19/23/20
f 23/29/24 36/25/21 20/21/19
f 36/25/21 23/29/24 25/30/25
f 33/31/26 5/32/27 25/30/25
f 24/33/28 5/32/27 30/34/29
f 23/29/24 6/35/22 33/31/26
f 11/36/4 9/37/2 32/38/1
f 11/36/4 19/39/20 16/40/15
f 6/41/22 19/39/20 11/36/4
f 11/36/4 26/42/30 6/41/22
f 32/38/1 26/42/30 11/36/4
f 26/43/30 32/44/1 27/45/31
f 33/46/26 6/47/22 37/48/32
f 27/45/31 34/49/33 28/50/34
f 28/50/34 33/51/26 27/45/31
f 30/52/29 5/53/27 28/50/34
f 34/49/33 2/54/7 28/50/34
f 10/3/3 29/55/35 32/1/1
f 10/56/3 31/57/5 29/58/35
f 3/59/13 28/50/34 2/54/7
f 30/52/29 3/59/13 4/60/18
f 30/52/29 4/60/18 1/61/36
f 13/11/9 12/8/6 11/5/4
f 16/17/15 13/11/9 11/5/4
f 14/10/8 2/9/7 12/8/6
f 15/12/10 3/15/13 2/9/7
f 17/13/11 13/11/9 16/17/15
f 35/14/12 4/20/18 3/15/13
f 18/16/14 35/14/12 15/12/10
f 8/19/17 1/62/36 4/20/18
f 19/23/20 21/28/23 20/21/19
f 20/21/19 36/25/21 18/24/14
f 36/25/21 22/63/37 8/26/17
f 8/26/17 22/63/37 24/33/28
f 23/29/24 21/28/23 6/27/22
f 23/29/24 20/21/19 21/28/23
f 22/64/37 36/25/21 25/30/25
f 25/65/25 23/66/24 33/67/26
f 24/33/28 1/68/36 8/26/17
f 22/64/37 25/30/25 5/32/27
f 24/33/28 22/64/37 5/32/27
f 1/68/36 24/33/28 30/34/29
f 7/69/16 16/40/15 19/39/20
f 6/27/22 26/70/30 37/71/32
f 27/72/31 37/71/32 26/70/30
f 33/51/26 37/71/32 27/45/31
f 33/73/26 28/74/34 5/75/27
f 34/49/33 27/45/31 29/58/35
f 32/44/1 29/58/35 27/45/31
f 31/76/5 34/77/33 29/78/35
f 31/76/5 2/79/7 34/77/33
f 3/59/13 30/52/29 28/50/34
