# Blender 4.1.1
# www.blender.org
mtllib Pillar.mtl
o awa
v -0.350535 -0.968409 -0.114178
v 0.171102 -1.385863 0.253534
v -0.417010 -0.574617 0.217539
v 0.048862 -1.331025 -0.004495
v 0.880358 -0.789275 -0.609341
v 0.251015 -0.913479 -0.930534
v -0.374672 -0.028234 -0.840204
v 0.629132 -0.219628 -1.207308
v 0.717859 -0.658381 0.553466
v 1.160341 0.101865 -0.550957
v -0.352033 0.538975 0.691826
v 0.050431 0.091470 0.987426
v 1.024654 0.025450 0.494193
v -0.962450 1.167645 -0.621541
v -0.810836 1.209148 -0.060883
v 0.492462 1.037254 -1.280314
v -0.150831 0.582278 -1.016446
v -0.788474 0.882020 -0.782009
v -0.846681 1.658899 0.292868
v -0.737167 1.926590 0.723430
v 0.722542 0.911639 -0.616396
v 0.313477 1.605942 1.101220
v 1.131109 1.129294 -0.408623
v 1.027642 1.476288 0.367604
v 0.865203 2.028633 -0.352455
v 0.422458 1.390505 0.850169
v 0.583576 2.259972 -0.619621
v -0.152081 1.756408 0.808658
v 0.340080 1.840092 -0.902513
v -0.533396 2.562006 -0.375146
v -0.395707 4.230927 1.112850
v 0.901212 2.850325 0.008190
v 1.078867 2.562432 -0.199690
v 0.398439 3.233681 -0.754914
v -0.327507 2.401786 -0.824450
v -0.644689 3.317585 0.071285
v 0.124557 2.471471 0.750447
v -0.925446 2.640703 -0.052412
v -0.046905 3.814441 0.857339
v 0.475922 3.807178 -0.455021
v 0.806948 3.408193 0.271238
v 1.108506 3.010884 -0.348794
v 0.325067 3.543142 0.967735
v 1.248443 4.125416 0.027387
v -0.319630 4.042770 -1.142359
v 0.823937 3.958265 -0.503583
v -0.330323 3.546956 -0.051557
v 0.934056 4.662281 0.283836
v 1.136846 4.352794 -0.429491
v -0.863564 4.016663 0.497102
v 0.061858 4.612538 0.935612
v -0.512897 4.337323 -0.423353
v 0.871894 4.661828 0.621186
v -0.809087 5.154258 -0.003957
v 0.311346 4.811436 -0.858202
v 0.430761 4.535121 1.143370
v 0.827452 4.923937 -0.804302
v 0.868564 5.122839 -0.207767
v -0.465665 5.098557 -0.712911
v -1.059234 4.839663 0.157472
v 1.006578 5.548419 -0.509794
v -0.407795 5.227246 0.866679
v -0.461497 5.187108 0.496563
v 0.095013 5.405050 0.984560
v -0.125048 5.434583 0.769566
v 0.608649 5.055505 0.794749
v -0.911370 5.609789 -0.415540
v 0.218222 5.263970 0.750418
v -0.955154 5.528419 0.341986
v 0.480833 6.455327 0.573200
v 0.565457 5.410692 0.425987
v 0.438673 5.700980 -0.783905
v 0.746809 5.635228 0.251508
v -0.472047 5.784705 -0.741174
v -0.957890 6.053517 0.059429
v -0.633777 6.101490 0.368206
v -0.780188 6.650577 -0.542930
v -0.041584 6.206824 -0.942683
v 0.090101 6.169851 0.690546
v 0.829186 6.811301 -0.102778
v -0.492712 7.380836 -0.281636
v -0.555638 7.239489 0.107671
v -0.545746 6.548650 0.537564
v 0.273008 7.176461 0.643584
v 0.195279 7.399421 -0.486853
v 0.498904 7.541939 -0.053536
v -0.541945 8.500532 0.471079
v -0.677403 8.604492 -0.500698
v -0.020626 8.400478 0.730125
v 0.186591 8.713333 -0.630999
v 0.482003 8.443303 0.598185
v 0.545903 8.533689 -0.063043
v -0.730292 8.248128 0.117808
v -0.439644 9.763872 0.203859
v 0.015154 9.975824 -0.314697
v -0.262880 10.153538 -0.202393
v -0.007196 10.425920 0.234050
v 0.201247 10.282737 0.104484
vn 0.3258 -0.8815 -0.3417
vn 0.9916 -0.0948 -0.0880
vn 0.9666 -0.0357 -0.2539
vn 0.8224 0.1269 0.5546
vn 0.9118 -0.0043 0.4106
vn 0.8258 0.2128 -0.5224
vn 0.3899 0.1372 -0.9106
vn 0.3052 -0.0636 -0.9502
vn 0.4347 0.0427 -0.8995
vn 0.7690 0.2637 -0.5823
vn -0.2154 -0.2953 -0.9308
vn 0.8535 0.2327 -0.4663
vn 0.8378 -0.0449 -0.5442
vn -0.0596 -0.1784 -0.9822
vn 0.8050 0.0480 -0.5914
vn 0.7044 0.3597 -0.6119
vn 0.8081 -0.2180 -0.5472
vn 0.8262 -0.0560 -0.5605
vn 0.6628 0.3030 -0.6848
vn 0.6643 -0.0525 -0.7457
vn 0.5957 0.1258 -0.7933
vn 0.5166 -0.2563 -0.8170
vn 0.6858 0.3087 -0.6591
vn 0.3396 -0.8830 -0.3240
vn 0.4755 0.2600 -0.8404
vn 0.4654 -0.5349 -0.7051
vn 0.9463 0.0848 -0.3119
vn 0.9181 0.2975 -0.2619
vn 0.7018 0.0706 -0.7089
vn 0.0302 -0.3681 -0.9293
vn 0.1624 -0.2939 -0.9419
vn 0.7252 0.0424 -0.6872
vn 0.8922 0.1087 -0.4384
vn 0.0884 0.0703 -0.9936
vn 0.4893 0.2249 -0.8426
vn 0.9510 0.0324 -0.3076
vn 0.4648 0.1685 -0.8692
vn -0.5263 0.2782 -0.8035
vn -0.3664 -0.1656 -0.9156
vn 0.1584 -0.0558 -0.9858
vn -0.3575 -0.0929 -0.9293
vn -0.0267 0.1064 -0.9940
vn -0.5336 -0.7213 -0.4417
vn -0.2637 -0.1770 -0.9482
vn -0.1459 0.1031 -0.9839
vn 0.0776 -0.2308 -0.9699
vn -0.0305 0.1020 -0.9943
vn 0.5608 -0.1601 -0.8123
vn -0.2728 0.3903 -0.8793
vn -0.7070 -0.4435 -0.5508
vn -0.0359 0.3723 -0.9274
vn -0.2816 -0.1065 -0.9536
vn -0.3899 -0.0415 -0.9199
vn -0.5810 0.2182 -0.7841
vn -0.3917 -0.1197 -0.9123
vn -0.3154 0.0692 -0.9464
vn -0.1723 0.2173 -0.9608
vn -0.2263 0.2422 -0.9435
vn -0.1225 -0.1928 -0.9736
vn -0.9092 -0.0008 -0.4163
vn -0.5375 0.1398 -0.8316
vn -0.9691 -0.0424 -0.2431
vn -0.9685 -0.0337 -0.2465
vn 0.1629 0.2749 -0.9476
vn -0.8060 0.3343 -0.4885
vn -0.9784 -0.0176 -0.2058
vn -0.5440 -0.1653 -0.8227
vn -0.8821 -0.3835 -0.2737
vn -0.8770 0.0232 0.4799
vn -0.8452 -0.3401 -0.4123
vn -0.5889 -0.0246 -0.8078
vn 0.2366 0.7559 -0.6104
vn -0.9398 0.2475 0.2358
vn -0.5485 0.3609 -0.7543
vn -0.5587 0.3676 -0.7434
vn -0.9516 -0.2797 -0.1273
vn -0.9504 -0.2970 -0.0926
vn -0.9769 0.1000 -0.1891
vn -0.9489 0.2814 -0.1429
vn -0.9408 -0.2055 0.2696
vn -0.3201 -0.0674 -0.9450
vn -0.9363 0.3450 0.0658
vn -0.9661 -0.1791 -0.1858
vn -0.9841 -0.1671 0.0597
vn -0.6404 -0.0467 -0.7666
vn -0.4694 -0.0780 -0.8795
vn -0.9626 -0.1645 -0.2153
vn -0.9821 0.1870 0.0237
vn -0.8306 0.5356 0.1523
vn -0.9460 0.3223 -0.0359
vn -0.9634 -0.2584 -0.0710
vn -0.5191 -0.0257 -0.8544
vn -0.6462 -0.5525 0.5264
vn -0.9769 -0.2077 0.0509
vn -0.9707 -0.1916 0.1453
vn -0.9968 -0.0798 0.0005
vn -0.7220 0.1773 0.6688
vn -0.9771 0.0969 0.1895
vn -0.9392 -0.0926 -0.3307
vn -0.8683 -0.0017 0.4961
vn -0.9175 -0.1883 0.3504
vn -0.9769 0.1405 0.1611
vn -0.6732 0.3477 0.6526
vn -0.6908 0.2061 0.6931
vn -0.9133 0.1537 0.3771
vn -0.7989 0.0168 0.6012
vn -0.2442 0.0843 0.9661
vn -0.2401 0.0904 0.9665
vn -0.8248 -0.1483 0.5457
vn -0.9721 0.1137 0.2051
vn -0.9996 0.0029 0.0276
vn -0.8108 0.1311 0.5704
vn -0.9409 0.3232 0.1015
vn -0.7491 -0.2221 0.6241
vn -0.9741 -0.1612 0.1588
vn -0.9015 0.0136 0.4326
vn -0.3228 -0.1110 0.9399
vn 0.1396 0.7684 -0.6246
vn 0.1015 -0.1115 0.9886
vn -0.4881 -0.3177 0.8129
vn -0.3998 0.2206 0.8897
vn 0.1716 0.2383 0.9559
vn 0.1607 0.2304 0.9597
vn 0.5524 -0.0479 0.8322
vn 0.1429 0.2532 0.9568
vn 0.4626 -0.1488 0.8740
vn -0.1539 0.0339 0.9875
vn -0.7701 -0.3332 0.5441
vn -0.1880 0.0798 0.9789
vn 0.2984 -0.0378 0.9537
vn -0.7020 -0.1189 0.7022
vn -0.0108 0.3587 0.9334
vn -0.4647 -0.1729 0.8684
vn -0.5795 0.0170 0.8148
vn -0.5255 0.0274 0.8503
vn -0.7883 -0.5602 0.2544
vn -0.6998 -0.0148 0.7142
vn -0.4957 -0.0329 0.8679
vn -0.4573 0.2465 0.8545
vn -0.3618 -0.1198 0.9245
vn -0.4935 -0.0180 0.8696
vn -0.3647 -0.1245 0.9228
vn -0.8313 0.0432 0.5542
vn 0.9096 0.1541 0.3858
vn 0.4236 -0.1408 0.8948
vn 0.4778 0.8406 -0.2551
vn 0.2217 0.0955 0.9704
vn 0.5225 0.3441 0.7802
vn 0.2935 -0.0087 0.9559
vn 0.0907 -0.4371 0.8948
vn 0.2287 0.2302 0.9459
vn 0.9390 0.0872 0.3328
vn 0.7722 -0.1896 0.6064
vn 0.9235 0.0209 0.3830
vn 0.2545 -0.0073 0.9671
vn 0.3625 -0.0822 0.9283
vn 0.7256 0.1942 0.6601
vn 0.8229 0.0062 0.5681
vn 0.7862 -0.2036 0.5834
vn -0.0301 0.1536 0.9877
vn 0.6162 0.0672 0.7847
vn 0.6406 0.2887 0.7115
vn 0.9957 0.0855 -0.0343
vn 0.9609 -0.1502 0.2326
vn 0.9025 -0.0492 0.4278
vn 0.5803 0.2557 0.7732
vn 0.8474 0.4285 0.3134
vn 0.7179 -0.0398 0.6950
vn 0.8895 0.2171 0.4021
vn 0.9784 -0.1010 0.1802
vn 0.9949 -0.0463 0.0898
vn 0.3627 0.3712 0.8548
vn 0.8592 -0.0921 0.5033
vn 0.9917 0.0091 0.1281
vn 0.7688 0.3098 0.5594
vn 0.8659 0.0877 0.4924
vn 0.8643 0.2002 0.4614
vn 0.9763 0.1810 0.1191
vn 0.7505 -0.6369 0.1766
vn 0.9045 -0.3910 0.1704
vn 0.9915 0.0103 0.1295
vn 0.9590 0.2835 0.0011
vn 0.9652 0.1917 0.1781
vn 0.4699 -0.1411 0.8714
vn 0.9685 0.0071 0.2488
vn 0.9473 -0.3042 0.1007
vn 0.8886 -0.2446 -0.3881
vn 0.6123 -0.1783 0.7702
vn 0.8827 0.3959 0.2533
vn 0.9806 0.1903 0.0476
vn 0.9374 0.3433 -0.0581
s 0
f 2//1 4//1 5//1
f 33//2 42//2 44//2
f 42//3 49//3 44//3
f 49//4 61//4 58//4
f 58//5 61//5 80//5
f 98//6 92//6 95//6
f 23//7 10//7 21//7
f 42//8 46//8 49//8
f 23//9 21//9 27//9
f 23//10 27//10 25//10
f 33//11 40//11 42//11
f 92//12 90//12 95//12
f 86//13 90//13 92//13
f 42//14 40//14 46//14
f 49//15 57//15 61//15
f 86//16 80//16 85//16
f 5//17 8//17 10//17
f 86//18 85//18 90//18
f 10//19 8//19 21//19
f 25//20 27//20 33//20
f 33//21 27//21 40//21
f 49//22 46//22 57//22
f 80//23 61//23 85//23
f 5//24 4//24 6//24
f 57//25 72//25 61//25
f 5//26 6//26 8//26
f 8//27 16//27 21//27
f 21//28 16//28 29//28
f 21//29 29//29 27//29
f 46//30 40//30 55//30
f 46//31 55//31 57//31
f 29//32 34//32 27//32
f 27//33 34//33 40//33
f 57//34 55//34 72//34
f 61//35 78//35 85//35
f 34//36 55//36 40//36
f 61//37 72//37 78//37
f 16//38 17//38 29//38
f 8//39 6//39 7//39
f 34//40 35//40 55//40
f 8//41 7//41 16//41
f 34//42 29//42 35//42
f 4//43 1//43 6//43
f 16//44 7//44 17//44
f 55//45 59//45 72//45
f 72//46 59//46 78//46
f 29//47 17//47 35//47
f 55//48 35//48 45//48
f 85//49 78//49 81//49
f 6//50 1//50 7//50
f 55//51 45//51 59//51
f 85//52 81//52 90//52
f 59//53 74//53 78//53
f 78//54 74//54 81//54
f 7//55 18//55 17//55
f 17//56 18//56 35//56
f 90//57 88//57 95//57
f 95//58 88//58 96//58
f 90//59 81//59 88//59
f 35//60 30//60 52//60
f 35//61 18//61 14//61
f 35//62 52//62 45//62
f 45//63 52//63 59//63
f 81//64 74//64 77//64
f 35//65 14//65 30//65
f 59//66 52//66 74//66
f 74//67 52//67 67//67
f 7//68 14//68 18//68
f 30//69 47//69 52//69
f 7//70 1//70 14//70
f 74//71 67//71 77//71
f 96//72 97//72 95//72
f 14//73 15//73 30//73
f 30//74 38//74 47//74
f 47//75 38//75 36//75
f 47//76 54//76 52//76
f 52//77 54//77 67//77
f 67//78 75//78 77//78
f 88//79 94//79 96//79
f 14//80 1//80 15//80
f 47//81 36//81 54//81
f 77//82 75//82 81//82
f 88//83 81//83 93//83
f 67//84 54//84 75//84
f 30//85 15//85 38//85
f 54//86 36//86 60//86
f 81//87 82//87 93//87
f 88//88 93//88 94//88
f 96//89 94//89 97//89
f 81//90 75//90 82//90
f 36//91 50//91 60//91
f 60//92 75//92 54//92
f 1//93 4//93 3//93
f 1//94 3//94 15//94
f 15//95 3//95 19//95
f 15//96 19//96 38//96
f 38//97 19//97 36//97
f 60//98 69//98 75//98
f 36//99 20//99 50//99
f 60//100 50//100 69//100
f 19//101 3//101 20//101
f 36//102 19//102 20//102
f 75//103 69//103 76//103
f 75//104 76//104 82//104
f 93//105 87//105 94//105
f 50//106 20//106 31//106
f 50//107 63//107 69//107
f 69//108 63//108 76//108
f 93//109 82//109 87//109
f 76//110 83//110 82//110
f 82//111 83//111 87//111
f 50//112 31//112 62//112
f 50//113 62//113 63//113
f 3//114 11//114 20//114
f 63//115 62//115 76//115
f 76//116 62//116 83//116
f 20//117 11//117 31//117
f 97//118 98//118 95//118
f 11//119 28//119 31//119
f 11//120 3//120 2//120
f 87//121 97//121 94//121
f 62//122 31//122 51//122
f 62//123 51//123 65//123
f 28//124 39//124 31//124
f 62//125 65//125 83//125
f 87//121 89//121 97//121
f 39//126 51//126 31//126
f 83//127 84//127 87//127
f 11//128 2//128 12//128
f 83//129 79//129 84//129
f 28//130 37//130 39//130
f 65//131 64//131 83//131
f 83//132 64//132 79//132
f 87//133 84//133 89//133
f 11//134 12//134 28//134
f 28//135 12//135 22//135
f 4//136 2//136 3//136
f 65//137 51//137 64//137
f 51//138 56//138 64//138
f 28//139 22//139 37//139
f 37//140 43//140 39//140
f 39//141 56//141 51//141
f 39//142 43//142 56//142
f 37//143 22//143 43//143
f 64//144 68//144 79//144
f 12//145 9//145 22//145
f 64//146 66//146 68//146
f 79//147 68//147 70//147
f 64//148 56//148 66//148
f 79//149 70//149 84//149
f 2//150 9//150 12//150
f 89//151 91//151 97//151
f 22//152 9//152 26//152
f 43//153 53//153 56//153
f 22//154 26//154 43//154
f 89//155 84//155 91//155
f 9//156 13//156 26//156
f 56//157 53//157 66//157
f 26//158 41//158 43//158
f 43//159 41//159 53//159
f 68//160 66//160 70//160
f 26//161 13//161 24//161
f 97//162 91//162 98//162
f 70//163 66//163 71//163
f 84//164 86//164 91//164
f 26//165 32//165 41//165
f 26//166 24//166 32//166
f 66//167 53//167 71//167
f 70//168 71//168 73//168
f 84//169 70//169 86//169
f 53//170 41//170 48//170
f 91//171 86//171 92//171
f 71//172 53//172 73//172
f 41//173 32//173 48//173
f 13//174 23//174 24//174
f 70//175 80//175 86//175
f 70//176 73//176 80//176
f 32//177 24//177 33//177
f 91//178 92//178 98//178
f 9//179 2//179 5//179
f 9//180 5//180 13//180
f 13//181 10//181 23//181
f 23//182 25//182 24//182
f 53//183 48//183 73//183
f 48//184 32//184 44//184
f 73//185 58//185 80//185
f 13//186 5//186 10//186
f 24//187 25//187 33//187
f 32//188 33//188 44//188
f 44//189 58//189 48//189
f 48//190 58//190 73//190
f 44//191 49//191 58//191
