# Blender 3.3.2
# www.blender.org
mtllib Stone_01.mtl
o stone
v -0.384064 1.046036 -0.259551
v -0.393030 -0.030199 -0.213015
v -0.417807 0.434043 0.282525
v -0.024305 1.632084 0.285232
v 0.018480 1.965152 -0.295797
v -0.064555 1.195142 -0.435933
v 0.017387 -0.046691 -0.356042
v 0.090780 -0.136433 0.484306
v 0.096155 1.581653 0.291313
v 0.087175 0.742191 0.513078
v 0.039384 1.790350 -0.209193
v 0.477275 -0.100701 -0.005142
v 0.169537 0.946744 -0.159705
vn -0.9984 0.0059 -0.0555
vn -0.8414 0.3835 0.3806
vn -0.9446 0.3100 0.1082
vn -0.5450 0.2067 -0.8126
vn -0.4707 -0.0342 -0.8816
vn -0.0745 -0.9922 -0.0995
vn -0.7424 -0.5070 0.4379
vn -0.3309 -0.0823 -0.9401
vn -0.3991 -0.0316 0.9164
vn -0.5146 0.2241 0.8276
vn -0.0452 0.0126 0.9989
vn 0.3157 0.8130 0.4893
vn 0.9471 -0.0443 -0.3179
vn -0.0383 -0.9940 -0.1028
vn 0.7976 0.0880 -0.5967
vn 0.7670 0.0093 -0.6416
vn 0.6100 0.0627 -0.7899
vn 0.7853 -0.0170 0.6189
vn 0.9302 0.3037 0.2062
vn 0.9914 0.0233 0.1285
vn 0.9875 0.1494 -0.0497
vn 0.9937 0.0794 -0.0796
s 0
f 1//1 2//1 3//1
f 5//2 1//2 3//2
f 5//3 3//3 4//3
f 5//4 6//4 1//4
f 1//5 6//5 2//5
f 2//6 7//6 8//6
f 3//7 2//7 8//7
f 6//8 7//8 2//8
f 3//9 8//9 10//9
f 3//10 10//10 9//10
f 3//11 9//11 4//11
f 4//12 9//12 5//12
f 5//13 11//13 6//13
f 7//14 12//14 8//14
f 11//15 13//15 6//15
f 13//16 7//16 6//16
f 12//17 7//17 13//17
f 10//18 8//18 12//18
f 10//19 12//19 13//19
f 10//20 13//20 9//20
f 9//21 13//21 11//21
f 9//22 11//22 5//22
