# Blender 4.1.1
# www.blender.org
mtllib Unknown01.mtl
o 陷阱
v -0.851582 1.567252 -0.393529
v -0.194811 1.507240 -1.094240
v -0.691943 1.523929 0.388219
v -1.040967 1.529610 -0.044166
v -1.062760 1.239826 1.106930
v -0.753952 1.281921 1.104527
v -0.276620 1.305844 1.141783
v 0.037858 1.604969 -0.418553
v 0.482699 1.403896 0.712251
v 0.883523 1.483454 -0.387806
v 0.475917 1.388719 -1.205188
v 0.033609 1.352144 -1.357158
v -1.325238 1.226420 0.695196
v -0.875030 1.203038 1.419859
v -0.301312 1.041836 1.519372
v 0.903618 1.223920 0.890385
v 1.015462 1.396840 0.212993
v 1.350799 1.056360 0.277568
v 1.381884 1.064196 -0.431530
v 1.080662 1.089366 -0.983629
v 0.513368 1.077484 -1.515433
v 0.152695 1.118953 -1.533804
v -0.661365 1.288612 -1.122469
v -1.244061 1.434025 -0.037939
v 1.546643 1.050218 -0.409040
v 0.360390 1.065979 -1.805477
v -0.630135 1.107727 -1.410562
v -1.044986 1.104727 -1.088027
v -1.214547 1.448135 -0.577381
v -1.623313 1.136762 0.229078
v -1.613333 1.169877 0.666356
v 1.285012 1.006500 0.612108
v 1.656470 1.057071 0.062654
v 1.386277 1.029420 -0.847357
v 0.571879 1.003658 -1.716455
v 0.263281 1.057764 -1.862556
v -1.700793 1.152890 0.546600
v -0.786809 1.208292 1.857764
v -0.398605 1.147337 1.824508
v 0.978266 0.842660 1.283089
v 1.165653 0.866179 1.124781
v 1.586783 1.047912 0.626103
v -0.365262 1.194598 1.932170
v 0.041866 0.976387 1.818921
v 1.044420 0.972178 -1.252301
v -0.736474 1.037457 -1.278203
v -1.263915 1.223891 1.186210
v 0.527379 0.947826 -1.493667
v 0.376673 0.994631 -1.819799
v -0.218285 1.003868 -1.516472
v -1.408855 1.346645 -0.443656
v 1.624056 1.040000 0.574430
v 0.961404 0.938108 -1.209135
v -0.522357 1.012712 -1.357408
v -0.866003 1.073344 -1.059927
v -1.062865 1.089021 -0.986256
v -1.288257 1.312804 -0.669795
v -1.586759 1.134068 0.032858
v -1.212130 1.138691 1.401700
v -0.675892 1.183507 1.969849
v -1.311681 1.385408 -0.161211
v -1.458080 1.145028 0.929165
v -0.898708 1.165031 1.831991
v -0.206328 0.952731 1.814554
v 1.222488 1.029457 -0.404211
v 0.920395 0.955135 -1.009273
v 0.258540 1.013187 -1.386787
v -0.426804 1.025632 -1.289061
v 0.228404 0.831406 1.430272
v 1.160938 0.838902 0.880139
v 1.415802 0.959202 0.644831
v 1.276815 1.011884 0.279008
v 0.733755 1.014159 -1.128767
v -1.107331 1.500286 -0.441187
v -1.233010 1.186488 0.944991
v -0.866724 1.103825 1.560933
v -0.307290 0.907602 1.583234
v 0.827439 1.123850 0.937266
v 1.023622 0.927116 0.771895
v 0.685347 1.259842 -1.093532
v 0.228424 1.313647 -1.309089
v -0.260046 1.410665 -1.176509
v -0.684992 1.496407 -0.747027
v -0.730425 1.443502 0.678739
v -0.916061 1.155759 1.221807
v -0.699890 1.080155 1.371061
v -0.304014 0.953852 1.447172
v 0.304210 1.172713 1.179728
v 0.643871 1.305200 0.849096
v 1.081152 1.334432 0.118870
v -0.259564 1.573688 -0.022924
v -0.340177 1.306770 1.084221
v 1.007267 1.241857 0.635241
v 0.827424 1.401083 -0.687469
v 0.414798 1.530567 0.081256
v -0.358441 0.805410 -0.386571
v -0.739506 0.813510 0.017499
v -1.163351 1.086868 0.793541
v -0.643584 0.909900 1.232608
v -0.294274 0.802674 1.183265
v 0.574661 0.722900 0.677304
v 0.552701 0.869143 -0.518326
v -0.817671 1.143855 1.470835
v 0.949734 0.799518 0.531713
v 1.185175 0.952165 0.055222
v 0.090100 1.031394 -1.345746
v 0.597115 1.030081 -1.397125
v -0.633868 0.989569 -0.854996
v -1.152647 1.028736 0.126334
v 1.514130 1.051575 -0.350428
v 0.929177 1.003112 -1.223023
v 0.364386 1.076701 -1.756484
v 0.254079 1.073691 -1.840876
v -0.832806 1.089070 -1.235455
v -1.695255 1.160457 0.494484
v -1.417793 1.163505 0.843751
v 1.635316 1.069632 0.061252
v 1.366936 1.033317 -0.811249
v -1.616052 1.113249 0.117791
v -1.412861 1.178565 0.993051
v -0.686648 1.225316 1.859822
v -0.383906 1.206555 1.912982
v -0.046981 0.995630 1.787922
v 0.705917 0.875142 1.386322
v 1.447638 1.031589 0.748325
v 1.096861 0.983590 -1.162156
v -0.870735 1.222991 1.768109
v 1.076312 0.857740 1.194816
v 0.712891 0.970055 -1.489321
v 1.596192 1.062502 0.570553
v 0.406886 1.014508 -1.817926
v 0.017057 0.993265 -1.583198
v -1.294152 1.072337 -0.529568
v -1.505106 1.129876 0.932342
v -0.631738 0.987264 -1.250445
v -1.110771 1.074164 -0.946063
v -1.215163 1.133851 1.414436
v -0.800911 1.188808 1.916983
v -0.567389 1.203209 1.964269
v -1.301106 1.047731 0.272071
v -0.229484 0.949731 1.769794
v 1.392132 0.972059 0.666681
v 0.590798 0.781959 -0.838527
v -0.305274 0.854222 -1.049717
v -0.028449 0.784705 1.434509
v 0.834213 0.725490 0.911562
v -0.792590 0.824980 -0.214029
v -0.946019 1.060665 1.468689
v -0.617174 0.870450 1.399847
v -0.203314 0.708492 1.142561
v -0.050196 0.658885 0.906528
v 1.190261 0.836720 0.771960
v -0.747211 0.763597 0.655651
v 0.668348 0.645024 0.547501
v 0.784034 0.707416 -0.074743
v -0.335776 0.674082 0.216410
vn -0.0698 0.9951 0.0694
vn -0.2700 0.9349 0.2302
vn -0.1262 0.9431 0.3077
vn -0.0719 0.9468 0.3137
vn -0.0405 0.9972 0.0635
vn 0.1258 0.9693 0.2112
vn -0.0229 0.9827 0.1838
vn 0.1464 0.9717 -0.1856
vn 0.1405 0.9719 -0.1889
vn -0.0456 0.9908 -0.1276
vn -0.1311 0.9724 0.1929
vn 0.2066 0.9276 0.3114
vn -0.0853 0.8192 0.5672
vn 0.2193 0.7928 0.5687
vn 0.1422 0.8442 0.5168
vn 0.2747 0.9198 0.2802
vn 0.1213 0.9859 0.1155
vn 0.1369 0.9832 0.1210
vn 0.6548 0.6993 0.2866
vn 0.7082 0.7049 0.0388
vn 0.6419 0.7662 -0.0305
vn 0.5152 0.7834 -0.3477
vn 0.5226 0.6326 -0.5716
vn 0.1969 0.6539 -0.7305
vn 0.0821 0.8880 -0.4525
vn -0.3214 0.4620 -0.8266
vn -0.2861 0.6957 -0.6589
vn -0.3656 0.8336 -0.4141
vn -0.6073 0.6762 -0.4170
vn -0.4254 0.8950 -0.1341
vn -0.3879 0.8955 0.2181
vn 0.8473 0.4751 0.2374
vn 0.0825 0.9965 0.0146
vn 0.6002 0.7440 -0.2935
vn 0.1169 0.7082 -0.6963
vn -0.0885 0.9961 0.0072
vn 0.1202 0.9825 -0.1424
vn -0.0451 0.9793 -0.1974
vn -0.0965 0.8382 -0.5367
vn -0.4073 0.7529 -0.5169
vn -0.3933 0.7113 -0.5826
vn -0.4246 0.6568 -0.6231
vn 0.3149 0.9482 0.0420
vn -0.6228 0.7823 -0.0136
vn -0.5269 0.8313 0.1771
vn -0.4115 0.8878 0.2058
vn -0.0734 0.9972 0.0143
vn -0.0860 0.9963 0.0056
vn 0.2256 0.9710 -0.0788
vn 0.3199 0.8895 -0.3261
vn 0.2368 0.9323 -0.2735
vn 0.3619 0.9042 -0.2267
vn 0.8360 0.3884 0.3877
vn -0.8027 0.5658 -0.1884
vn -0.9120 0.3710 -0.1750
vn -0.1854 0.9802 -0.0700
vn -0.0264 0.9909 0.1323
vn 0.0690 0.9973 -0.0259
vn 0.4876 0.7337 -0.4731
vn 0.2995 0.9272 -0.2251
vn 0.0927 0.9498 -0.2988
vn 0.2030 0.9258 0.3189
vn 0.4775 -0.2431 0.8443
vn -0.1428 0.9626 0.2302
vn 0.6041 0.7623 0.2324
vn -0.1363 0.9906 0.0075
vn 0.0954 0.9921 -0.0820
vn -0.0928 0.9930 -0.0731
vn -0.1953 0.9803 0.0294
vn 0.0358 0.9992 -0.0192
vn 0.3158 0.8289 -0.4617
vn 0.3392 0.8616 0.3777
vn 0.1249 0.9492 0.2889
vn 0.6183 0.5139 -0.5946
vn 0.4500 0.3596 -0.8174
vn 0.4486 0.2189 -0.8665
vn -0.3653 -0.6681 -0.6482
vn 0.2276 -0.9281 -0.2947
vn 0.1215 -0.9683 -0.2184
vn 0.1561 -0.9650 -0.2106
vn -0.2985 -0.7882 -0.5382
vn -0.2718 -0.8380 -0.4731
vn -0.5320 -0.4924 -0.6888
vn -0.8271 -0.5151 -0.2248
vn -0.5260 0.8065 0.2698
vn 0.2723 0.9609 0.0493
vn 0.3159 -0.9393 -0.1339
vn -0.2686 -0.8222 -0.5018
vn -0.0695 -0.9901 0.1216
vn -0.3247 -0.9245 -0.1997
vn -0.6888 0.6022 0.4036
vn -0.6223 0.6652 0.4126
vn -0.4039 0.8618 0.3070
vn -0.4077 0.7193 0.5625
vn 0.1596 -0.9869 -0.0228
vn -0.0230 -0.9886 0.1489
vn -0.0140 -0.9900 0.1407
vn -0.0809 -0.9962 0.0309
vn -0.0625 -0.9979 0.0192
vn 0.0245 -0.4241 0.9053
vn 0.0815 -0.9242 0.3731
vn 0.3645 -0.9312 0.0095
vn 0.7831 -0.1864 0.5934
vn 0.3505 -0.9358 -0.0373
vn 0.2455 -0.9684 -0.0439
vn -0.0686 -0.9951 0.0707
vn -0.5084 -0.7496 0.4238
vn -0.1338 -0.9590 0.2500
vn -0.0809 -0.9279 0.3640
vn -0.0712 -0.9914 -0.1094
vn 0.0399 -0.9905 0.1314
vn 0.5443 -0.8227 -0.1638
vn 0.1821 -0.9832 -0.0141
vn -0.0045 -0.9999 0.0129
vn 0.1249 -0.3663 0.9221
vn 0.0906 -0.9157 0.3916
vn 0.4900 -0.8674 0.0873
vn 0.2101 -0.9721 0.1043
vn 0.0634 -0.9975 -0.0307
vn -0.1131 -0.9886 -0.0994
vn 0.2371 -0.9448 -0.2262
vn 0.0650 -0.9937 0.0917
vn 0.0531 -0.9940 0.0956
vn -0.0052 -0.9959 0.0906
vn -0.0057 -0.9811 0.1934
vn 0.0885 -0.8034 0.5889
vn 0.1854 -0.7352 0.6520
vn 0.6228 -0.7700 0.1386
vn 0.2715 -0.9437 -0.1890
vn 0.7470 -0.6430 -0.1688
vn 0.1876 -0.9760 -0.1107
vn -0.1872 -0.9627 0.1953
vn -0.0516 -0.9754 0.2142
vn -0.3280 -0.8867 0.3259
vn -0.3252 -0.8913 0.3158
vn -0.0748 -0.9721 0.2223
vn -0.2220 -0.9215 -0.3186
vn -0.1882 -0.7272 -0.6601
vn -0.6384 0.0103 -0.7696
vn -0.2375 -0.8785 -0.4146
vn 0.0185 -0.9997 0.0177
vn -0.3217 -0.8916 -0.3186
vn -0.4657 -0.2149 0.8585
vn 0.1330 -0.2356 0.9627
vn 0.5878 -0.4509 0.6716
vn 0.2964 -0.6467 0.7028
vn 0.4429 -0.6479 0.6198
vn -0.0369 -0.9986 -0.0382
vn 0.3746 -0.9110 -0.1723
vn 0.2502 -0.8883 -0.3851
vn 0.0416 -0.9867 -0.1572
vn -0.0535 -0.9934 -0.1015
vn -0.3205 -0.9327 -0.1654
vn -0.2321 -0.9192 -0.3180
vn -0.4163 0.0474 -0.9080
vn -0.3606 -0.6769 -0.6417
vn -0.7693 -0.2877 -0.5704
vn -0.8657 -0.4973 0.0560
vn 0.1808 -0.3473 0.9202
vn -0.0582 -0.9885 0.1397
vn 0.2261 -0.9737 -0.0289
vn 0.1774 -0.8682 -0.4635
vn 0.0115 -0.8852 -0.4651
vn -0.2602 -0.9594 -0.1091
vn -0.7833 -0.5827 -0.2165
vn -0.8430 -0.2505 -0.4761
vn -0.8903 -0.2316 0.3921
vn -0.5656 -0.5569 0.6083
vn -0.7622 -0.4757 0.4390
vn -0.7391 -0.6494 0.1789
vn -0.4367 -0.2660 0.8594
vn -0.2926 -0.8668 0.4039
vn -0.0256 -0.9714 -0.2361
vn -0.0846 -0.9866 0.1395
vn -0.1469 -0.9741 0.1717
vn -0.0183 -0.9875 0.1565
vn -0.0898 -0.9667 -0.2396
vn -0.0466 -0.7185 -0.6940
vn -0.0968 -0.7184 -0.6889
vn 0.0768 -0.9503 -0.3018
vn -0.4810 -0.8696 -0.1117
vn -0.0465 -0.9966 -0.0677
vn -0.2858 -0.9353 -0.2086
vn -0.4437 -0.7131 -0.5428
vn -0.1473 -0.9360 -0.3197
vn -0.0077 0.9747 0.2232
vn 0.3980 0.9115 -0.1037
vn 0.2794 0.9552 -0.0978
vn 0.0221 0.9998 0.0008
vn 0.0903 0.9959 -0.0020
vn 0.5502 0.7605 -0.3448
vn -0.0517 0.9912 0.1222
vn -0.2757 0.9466 0.1670
vn -0.0376 0.9764 0.2125
vn 0.1413 0.9468 0.2891
vn 0.2541 0.9416 0.2208
vn 0.4965 0.8373 0.2291
vn 0.4462 0.8922 -0.0706
vn -0.2311 0.9726 -0.0240
vn -0.2745 0.9615 0.0130
vn -0.1983 0.9770 0.0786
vn -0.1998 0.9767 0.0789
vn -0.0142 0.9837 0.1794
vn 0.0209 0.9832 0.1811
vn 0.0147 0.9928 0.1193
vn -0.0736 0.9954 0.0607
vn 0.0750 0.9911 0.1095
vn 0.0859 0.9740 0.2098
vn 0.1378 0.9735 0.1825
vn 0.1655 0.9850 0.0482
vn 0.2683 0.9620 0.0512
vn 0.1508 0.9802 -0.1284
vn 0.1195 0.9874 -0.1035
vn 0.2731 0.9587 -0.0791
vn 0.2450 0.9476 -0.2048
vn -0.1527 0.9806 0.1227
vn -0.1540 0.9881 0.0020
vn -0.0453 0.9987 -0.0251
vn -0.8218 0.4417 -0.3599
vn -0.2087 0.9640 -0.1647
vn 0.3450 0.8886 -0.3023
vn 0.1014 0.9663 -0.2365
vn 0.1418 0.7561 -0.6389
vn 0.3155 0.8461 -0.4295
vn 0.3668 0.8323 -0.4156
vn -0.0080 0.9536 -0.3010
vn -0.0512 0.9934 -0.1025
vn -0.4001 0.5025 -0.7664
vn -0.4229 0.9062 0.0012
vn -0.4450 0.8931 0.0662
vn 0.2165 0.9296 -0.2984
vn 0.0198 0.9931 0.1160
vn 0.0275 0.9964 -0.0804
vn 0.0014 0.9961 -0.0877
vn 0.2137 0.9331 -0.2894
vn 0.7132 0.3272 -0.6199
vn 0.4977 0.7575 -0.4225
vn 0.3755 0.7685 -0.5182
vn 0.0649 0.9926 -0.1023
vn -0.3055 -0.7922 -0.5282
vn -0.3591 -0.6045 -0.7111
vn -0.5954 0.7411 0.3103
vn -0.0172 -0.9928 -0.1183
vn -0.2498 -0.8350 -0.4903
vn -0.4294 -0.7814 -0.4527
vn -0.1886 -0.9815 -0.0318
vn -0.6099 0.7054 0.3610
vn -0.5449 0.7678 0.3371
vn -0.6199 0.6498 0.4399
vn -0.1565 0.9441 0.2902
vn -0.1266 0.9312 0.3417
vn 0.2823 -0.9584 -0.0411
vn -0.2893 -0.9554 0.0589
vn 0.0313 -0.4723 0.8809
vn 0.1548 -0.8282 0.5387
vn 0.4283 -0.9016 0.0610
vn 0.7661 0.0142 0.6426
vn 0.4126 -0.9107 0.0189
vn 0.2587 -0.9649 -0.0444
vn 0.2295 -0.9457 -0.2303
vn 0.0053 -0.9609 -0.2767
vn -0.2272 -0.9725 0.0508
vn 0.2583 -0.3473 0.9015
vn 0.1381 -0.8533 0.5028
vn 0.4067 -0.8340 0.3728
vn -0.0247 -0.9988 0.0430
vn 0.6163 -0.7607 0.2039
vn 0.5404 -0.8403 -0.0440
vn 0.3090 -0.9358 -0.1695
vn 0.3097 -0.9451 -0.1045
vn -0.0162 -0.9651 -0.2613
vn -0.1667 -0.9249 -0.3418
vn -0.2799 -0.9447 -0.1709
vn -0.3539 -0.9215 -0.1599
vn -0.4261 -0.9041 -0.0314
vn -0.2787 -0.9559 0.0930
vn -0.1261 -0.9885 0.0840
vn -0.3111 -0.8824 0.3529
vn 0.0039 -0.9618 0.2737
vn -0.3291 -0.8105 0.4846
vn -0.3412 -0.7799 0.5247
vn -0.1552 -0.9200 0.3598
vn 0.0397 -0.9724 0.2301
vn 0.0718 -0.9709 0.2284
vn 0.1367 -0.9336 0.3312
vn 0.3201 -0.9453 0.0631
vn 0.4231 -0.9037 -0.0650
vn -0.2818 -0.9390 -0.1972
vn -0.4335 -0.9002 -0.0409
vn -0.5401 -0.8244 0.1692
vn -0.1551 -0.9292 0.3355
vn 0.0728 -0.9803 0.1835
vn 0.3551 -0.9344 -0.0277
vn -0.1865 -0.9720 -0.1428
vn -0.2670 -0.9622 -0.0540
vn -0.4578 -0.8653 0.2042
vn -0.0463 -0.9888 -0.1418
vn 0.0041 -0.9952 -0.0982
vn -0.1647 -0.9852 0.0465
vn -0.1794 -0.9797 0.0895
vn -0.2585 -0.9488 0.1814
vn -0.0251 -0.9996 -0.0116
vn 0.0039 -0.9951 -0.0991
vn 0.0305 0.9844 0.1735
s 0
f 3//1 1//1 4//1
f 3//2 4//2 5//2
f 3//3 5//3 6//3
f 3//4 6//4 7//4
f 8//5 1//5 3//5
f 8//6 3//6 7//6
f 8//7 7//7 9//7
f 8//8 10//8 11//8
f 8//9 11//9 2//9
f 8//10 2//10 1//10
f 6//11 5//11 14//11
f 6//12 14//12 15//12
f 7//13 6//13 15//13
f 7//14 15//14 9//14
f 9//15 15//15 16//15
f 9//16 16//16 17//16
f 9//17 17//17 10//17
f 9//18 10//18 8//18
f 17//19 16//19 18//19
f 17//20 18//20 19//20
f 17//21 19//21 10//21
f 10//22 20//22 11//22
f 11//23 20//23 21//23
f 11//24 22//24 12//24
f 11//25 12//25 2//25
f 12//26 22//26 23//26
f 12//27 23//27 2//27
f 1//28 2//28 23//28
f 1//29 23//29 24//29
f 1//30 24//30 4//30
f 4//31 13//31 5//31
f 18//32 32//32 25//32
f 18//33 25//33 19//33
f 19//34 20//34 10//34
f 21//35 22//35 11//35
f 26//36 36//36 21//36
f 22//37 21//37 36//37
f 22//38 36//38 27//38
f 23//39 22//39 27//39
f 23//40 27//40 28//40
f 23//41 28//41 57//41
f 23//42 57//42 29//42
f 23//43 29//43 24//43
f 24//44 29//44 30//44
f 24//45 30//45 13//45
f 24//46 13//46 4//46
f 5//47 13//47 47//47
f 25//48 42//48 33//48
f 19//49 34//49 20//49
f 20//50 34//50 35//50
f 20//51 35//51 21//51
f 21//52 35//52 26//52
f 57//53 51//53 30//53
f 57//54 30//54 29//54
f 30//55 51//55 58//55
f 30//56 31//56 13//56
f 14//57 5//57 47//57
f 14//58 47//58 38//58
f 39//59 14//59 43//59
f 15//60 14//60 39//60
f 15//61 39//61 40//61
f 15//62 40//62 32//62
f 15//63 32//63 16//63
f 32//64 41//64 42//64
f 32//65 18//65 16//65
f 32//66 42//66 25//66
f 19//67 25//67 34//67
f 30//68 37//68 31//68
f 31//69 47//69 13//69
f 14//70 38//70 43//70
f 39//71 43//71 44//71
f 39//72 44//72 40//72
f 40//73 41//73 32//73
f 34//74 45//74 35//74
f 35//75 36//75 26//75
f 35//76 49//76 36//76
f 27//77 36//77 46//77
f 35//78 45//78 53//78
f 35//79 53//79 48//79
f 35//80 48//80 49//80
f 46//81 36//81 50//81
f 46//82 50//82 54//82
f 46//83 28//83 27//83
f 57//84 28//84 56//84
f 47//85 31//85 37//85
f 33//86 42//86 52//86
f 34//87 53//87 45//87
f 50//88 36//88 49//88
f 46//89 54//89 55//89
f 46//90 56//90 28//90
f 37//91 59//91 47//91
f 63//92 47//92 59//92
f 38//93 47//93 63//93
f 38//94 63//94 60//94
f 33//95 52//95 25//95
f 56//96 46//96 55//96
f 51//97 57//97 61//97
f 37//98 30//98 62//98
f 62//99 59//99 37//99
f 44//100 43//100 64//100
f 44//101 64//101 40//101
f 41//102 71//102 52//102
f 41//103 52//103 42//103
f 25//104 52//104 71//104
f 25//105 53//105 34//105
f 53//106 66//106 48//106
f 48//107 66//107 73//107
f 48//108 73//108 67//108
f 48//109 67//109 50//109
f 48//110 50//110 49//110
f 50//111 68//111 54//111
f 58//112 51//112 75//112
f 58//113 75//113 62//113
f 62//114 30//114 58//114
f 64//115 43//115 60//115
f 64//116 69//116 40//116
f 70//117 71//117 41//117
f 70//118 41//118 40//118
f 72//119 65//119 25//119
f 72//120 25//120 71//120
f 72//121 71//121 70//121
f 65//122 53//122 25//122
f 65//123 66//123 53//123
f 50//124 67//124 68//124
f 54//125 68//125 55//125
f 55//126 74//126 57//126
f 55//127 57//127 56//127
f 61//128 57//128 74//128
f 61//129 74//129 75//129
f 61//130 75//130 51//130
f 75//131 59//131 62//131
f 63//132 59//132 76//132
f 63//133 76//133 60//133
f 64//134 60//134 76//134
f 64//135 76//135 77//135
f 64//136 77//136 69//136
f 69//137 77//137 87//137
f 69//138 87//138 78//138
f 69//139 78//139 79//139
f 69//140 79//140 70//140
f 69//141 70//141 40//141
f 70//142 79//142 72//142
f 67//143 73//143 80//143
f 67//144 81//144 68//144
f 68//145 82//145 83//145
f 68//146 83//146 55//146
f 74//147 55//147 83//147
f 74//148 83//148 84//148
f 74//149 84//149 75//149
f 75//150 84//150 85//150
f 75//151 85//151 76//151
f 75//152 76//152 59//152
f 77//153 76//153 86//153
f 77//154 86//154 87//154
f 87//155 88//155 78//155
f 78//156 88//156 89//156
f 79//157 78//157 93//157
f 90//158 65//158 72//158
f 82//159 68//159 81//159
f 83//160 82//160 91//160
f 83//161 91//161 84//161
f 84//162 92//162 86//162
f 84//163 86//163 85//163
f 76//164 85//164 86//164
f 93//165 90//165 72//165
f 93//166 72//166 79//166
f 94//167 80//167 73//167
f 94//168 73//168 66//168
f 94//169 66//169 65//169
f 94//170 65//170 90//170
f 81//171 67//171 80//171
f 81//172 80//172 94//172
f 95//173 92//173 91//173
f 95//174 91//174 82//174
f 95//175 82//175 81//175
f 95//176 81//176 94//176
f 92//177 84//177 91//177
f 92//178 88//178 87//178
f 87//179 86//179 92//179
f 89//180 88//180 95//180
f 89//181 95//181 94//181
f 89//182 94//182 90//182
f 89//183 90//183 93//183
f 89//184 93//184 78//184
f 88//185 92//185 95//185
f 43//186 38//186 60//186
f 97//187 98//187 99//187
f 97//188 99//188 100//188
f 96//189 97//189 100//189
f 96//190 100//190 101//190
f 99//191 98//191 103//191
f 101//192 102//192 96//192
f 102//193 104//193 105//193
f 96//194 102//194 106//194
f 96//195 106//195 108//195
f 97//196 96//196 108//196
f 97//197 108//197 109//197
f 97//198 109//198 98//198
f 105//199 125//199 130//199
f 105//200 130//200 110//200
f 105//201 110//201 111//201
f 105//202 111//202 102//202
f 102//203 111//203 107//203
f 102//204 107//204 106//204
f 106//205 107//205 112//205
f 106//206 112//206 113//206
f 106//207 113//207 114//207
f 108//208 106//208 114//208
f 108//209 114//209 136//209
f 108//210 136//210 109//210
f 109//211 136//211 115//211
f 109//212 115//212 116//212
f 116//213 115//213 120//213
f 116//214 98//214 109//214
f 98//215 116//215 103//215
f 101//216 104//216 102//216
f 110//217 130//217 117//217
f 110//218 118//218 111//218
f 136//219 133//219 115//219
f 115//220 133//220 119//220
f 103//221 116//221 121//221
f 103//222 121//222 122//222
f 100//223 99//223 103//223
f 100//224 103//224 122//224
f 100//225 122//225 123//225
f 100//226 123//226 124//226
f 100//227 124//227 104//227
f 100//228 104//228 101//228
f 104//229 128//229 125//229
f 104//230 125//230 105//230
f 111//231 118//231 126//231
f 107//232 111//232 112//232
f 116//233 127//233 121//233
f 124//234 128//234 104//234
f 111//235 126//235 129//235
f 111//236 129//236 131//236
f 111//237 131//237 112//237
f 112//238 131//238 113//238
f 116//239 120//239 127//239
f 114//240 113//240 132//240
f 114//241 132//241 135//241
f 115//242 134//242 120//242
f 129//243 132//243 131//243
f 132//244 113//244 131//244
f 114//245 135//245 136//245
f 133//246 140//246 119//246
f 120//247 134//247 137//247
f 127//248 120//248 137//248
f 127//249 137//249 138//249
f 127//250 138//250 121//250
f 121//251 138//251 139//251
f 110//252 117//252 142//252
f 115//253 119//253 134//253
f 122//254 141//254 123//254
f 123//255 141//255 124//255
f 128//256 142//256 130//256
f 128//257 130//257 125//257
f 142//258 117//258 130//258
f 110//259 142//259 118//259
f 129//260 126//260 143//260
f 129//261 143//261 132//261
f 140//262 134//262 119//262
f 141//263 122//263 139//263
f 141//264 145//264 124//264
f 124//265 146//265 152//265
f 124//266 152//266 128//266
f 152//267 142//267 128//267
f 142//268 152//268 118//268
f 118//269 155//269 143//269
f 118//270 143//270 126//270
f 143//271 144//271 132//271
f 144//272 135//272 132//272
f 135//273 144//273 136//273
f 136//274 147//274 133//274
f 140//275 133//275 147//275
f 140//276 148//276 137//276
f 140//277 137//277 134//277
f 138//278 137//278 148//278
f 138//279 148//279 139//279
f 141//280 139//280 148//280
f 141//281 148//281 149//281
f 141//282 149//282 145//282
f 145//283 150//283 151//283
f 145//284 151//284 146//284
f 145//285 146//285 124//285
f 146//286 154//286 152//286
f 152//287 155//287 118//287
f 144//288 147//288 136//288
f 147//289 153//289 140//289
f 140//290 153//290 148//290
f 149//291 150//291 145//291
f 151//292 154//292 146//292
f 154//293 155//293 152//293
f 147//294 144//294 156//294
f 147//295 156//295 153//295
f 149//296 148//296 153//296
f 156//297 144//297 143//297
f 156//298 143//298 155//298
f 153//299 156//299 151//299
f 153//300 151//300 150//300
f 149//301 153//301 150//301
f 154//302 151//302 156//302
f 154//303 156//303 155//303
f 121//304 139//304 122//304
